{
	"patcher" : 	{
		"fileversion" : 1,
		"appversion" : 		{
			"major" : 7,
			"minor" : 3,
			"revision" : 5,
			"architecture" : "x64",
			"modernui" : 1
		}
,
		"rect" : [ 34.0, 79.0, 1860.0, 1276.0 ],
		"bglocked" : 0,
		"openinpresentation" : 0,
		"default_fontsize" : 12.0,
		"default_fontface" : 0,
		"default_fontname" : "Arial",
		"gridonopen" : 1,
		"gridsize" : [ 15.0, 15.0 ],
		"gridsnaponopen" : 1,
		"objectsnaponopen" : 1,
		"statusbarvisible" : 2,
		"toolbarvisible" : 1,
		"lefttoolbarpinned" : 0,
		"toptoolbarpinned" : 0,
		"righttoolbarpinned" : 0,
		"bottomtoolbarpinned" : 0,
		"toolbars_unpinned_last_save" : 0,
		"tallnewobj" : 0,
		"boxanimatetime" : 200,
		"enablehscroll" : 1,
		"enablevscroll" : 1,
		"devicewidth" : 0.0,
		"description" : "",
		"digest" : "",
		"tags" : "",
		"style" : "",
		"subpatcher_template" : "",
		"boxes" : [ 			{
				"box" : 				{
					"id" : "obj-167",
					"maxclass" : "newobj",
					"numinlets" : 1,
					"numoutlets" : 1,
					"outlettype" : [ "" ],
					"patching_rect" : [ 829.5, 855.0, 73.0, 22.0 ],
					"presentation_rect" : [ 816.0, 848.0, 0.0, 0.0 ],
					"style" : "",
					"text" : "fromsymbol"
				}

			}
, 			{
				"box" : 				{
					"id" : "obj-166",
					"maxclass" : "newobj",
					"numinlets" : 1,
					"numoutlets" : 1,
					"outlettype" : [ "" ],
					"patching_rect" : [ 931.0, 855.0, 73.0, 22.0 ],
					"style" : "",
					"text" : "fromsymbol"
				}

			}
, 			{
				"box" : 				{
					"id" : "obj-163",
					"maxclass" : "newobj",
					"numinlets" : 2,
					"numoutlets" : 2,
					"outlettype" : [ "", "" ],
					"patching_rect" : [ 827.5, 961.0, 54.0, 22.0 ],
					"style" : "",
					"text" : "gate 2 1"
				}

			}
, 			{
				"box" : 				{
					"id" : "obj-162",
					"maxclass" : "button",
					"numinlets" : 1,
					"numoutlets" : 1,
					"outlettype" : [ "bang" ],
					"patching_rect" : [ 1203.0, 178.0, 24.0, 24.0 ],
					"style" : ""
				}

			}
, 			{
				"box" : 				{
					"id" : "obj-160",
					"maxclass" : "newobj",
					"numinlets" : 1,
					"numoutlets" : 2,
					"outlettype" : [ "", "text" ],
					"patching_rect" : [ 1178.0, 270.0, 40.0, 22.0 ],
					"style" : "",
					"text" : "t  text"
				}

			}
, 			{
				"box" : 				{
					"id" : "obj-141",
					"maxclass" : "newobj",
					"numinlets" : 2,
					"numoutlets" : 2,
					"outlettype" : [ "", "" ],
					"patching_rect" : [ 889.0, 989.0, 41.0, 22.0 ],
					"style" : "",
					"text" : "zl join"
				}

			}
, 			{
				"box" : 				{
					"id" : "obj-138",
					"maxclass" : "newobj",
					"numinlets" : 1,
					"numoutlets" : 3,
					"outlettype" : [ "bang", "", "int" ],
					"patching_rect" : [ 931.0, 890.0, 40.0, 22.0 ],
					"style" : "",
					"text" : "t b l 2"
				}

			}
, 			{
				"box" : 				{
					"id" : "obj-130",
					"maxclass" : "newobj",
					"numinlets" : 1,
					"numoutlets" : 3,
					"outlettype" : [ "bang", "", "int" ],
					"patching_rect" : [ 827.5, 890.0, 40.0, 22.0 ],
					"style" : "",
					"text" : "t b l 1"
				}

			}
, 			{
				"box" : 				{
					"id" : "obj-129",
					"maxclass" : "newobj",
					"numinlets" : 2,
					"numoutlets" : 2,
					"outlettype" : [ "", "" ],
					"patching_rect" : [ 827.5, 989.0, 41.0, 22.0 ],
					"style" : "",
					"text" : "zl join"
				}

			}
, 			{
				"box" : 				{
					"id" : "obj-128",
					"maxclass" : "newobj",
					"numinlets" : 2,
					"numoutlets" : 2,
					"outlettype" : [ "", "" ],
					"patching_rect" : [ 827.5, 930.0, 40.0, 22.0 ],
					"style" : "",
					"text" : "zl reg"
				}

			}
, 			{
				"box" : 				{
					"id" : "obj-115",
					"maxclass" : "newobj",
					"numinlets" : 1,
					"numoutlets" : 1,
					"outlettype" : [ "" ],
					"patching_rect" : [ 722.0, 330.0, 59.0, 22.0 ],
					"style" : "",
					"text" : "tosymbol"
				}

			}
, 			{
				"box" : 				{
					"id" : "obj-108",
					"maxclass" : "newobj",
					"numinlets" : 1,
					"numoutlets" : 1,
					"outlettype" : [ "" ],
					"patching_rect" : [ 722.0, 355.0, 77.0, 22.0 ],
					"style" : "",
					"text" : "prepend text"
				}

			}
, 			{
				"box" : 				{
					"id" : "obj-82",
					"maxclass" : "newobj",
					"numinlets" : 1,
					"numoutlets" : 1,
					"outlettype" : [ "" ],
					"patching_rect" : [ 426.0, 68.0, 59.0, 22.0 ],
					"style" : "",
					"text" : "tosymbol"
				}

			}
, 			{
				"box" : 				{
					"id" : "obj-84",
					"maxclass" : "newobj",
					"numinlets" : 1,
					"numoutlets" : 1,
					"outlettype" : [ "" ],
					"patching_rect" : [ 428.0, 94.0, 77.0, 22.0 ],
					"style" : "",
					"text" : "prepend text"
				}

			}
, 			{
				"box" : 				{
					"id" : "obj-77",
					"maxclass" : "newobj",
					"numinlets" : 2,
					"numoutlets" : 1,
					"outlettype" : [ "int" ],
					"patching_rect" : [ 722.0, 278.0, 29.5, 22.0 ],
					"style" : "",
					"text" : "- 1"
				}

			}
, 			{
				"box" : 				{
					"id" : "obj-67",
					"maxclass" : "newobj",
					"numinlets" : 2,
					"numoutlets" : 2,
					"outlettype" : [ "", "" ],
					"patching_rect" : [ 722.0, 306.0, 58.0, 22.0 ],
					"style" : "",
					"text" : "zl lookup"
				}

			}
, 			{
				"box" : 				{
					"id" : "obj-64",
					"maxclass" : "newobj",
					"numinlets" : 1,
					"numoutlets" : 2,
					"outlettype" : [ "", "" ],
					"patching_rect" : [ 722.0, 226.0, 29.5, 22.0 ],
					"style" : "",
					"text" : "t l l"
				}

			}
, 			{
				"box" : 				{
					"id" : "obj-16",
					"maxclass" : "newobj",
					"numinlets" : 2,
					"numoutlets" : 2,
					"outlettype" : [ "", "" ],
					"patching_rect" : [ 722.0, 252.0, 39.0, 22.0 ],
					"style" : "",
					"text" : "zl len"
				}

			}
, 			{
				"box" : 				{
					"id" : "obj-30",
					"maxclass" : "message",
					"numinlets" : 2,
					"numoutlets" : 1,
					"outlettype" : [ "" ],
					"patching_rect" : [ 1030.0, 270.0, 31.0, 22.0 ],
					"style" : "",
					"text" : "-0.5"
				}

			}
, 			{
				"box" : 				{
					"id" : "obj-120",
					"maxclass" : "message",
					"numinlets" : 2,
					"numoutlets" : 1,
					"outlettype" : [ "" ],
					"patching_rect" : [ 698.0, 449.0, 77.0, 22.0 ],
					"style" : "",
					"text" : "color 1 1 1 1"
				}

			}
, 			{
				"box" : 				{
					"id" : "obj-118",
					"maxclass" : "newobj",
					"numinlets" : 2,
					"numoutlets" : 2,
					"outlettype" : [ "bang", "" ],
					"patching_rect" : [ 642.0, 384.0, 57.0, 22.0 ],
					"style" : "",
					"text" : "sel white"
				}

			}
, 			{
				"box" : 				{
					"id" : "obj-116",
					"maxclass" : "message",
					"numinlets" : 2,
					"numoutlets" : 1,
					"outlettype" : [ "" ],
					"patching_rect" : [ 698.0, 415.0, 77.0, 22.0 ],
					"style" : "",
					"text" : "color 0 0 0 1"
				}

			}
, 			{
				"box" : 				{
					"id" : "obj-112",
					"maxclass" : "number",
					"numinlets" : 1,
					"numoutlets" : 2,
					"outlettype" : [ "", "bang" ],
					"parameter_enable" : 0,
					"patching_rect" : [ 1097.0, 449.0, 50.0, 22.0 ],
					"style" : ""
				}

			}
, 			{
				"box" : 				{
					"id" : "obj-101",
					"maxclass" : "message",
					"numinlets" : 2,
					"numoutlets" : 1,
					"outlettype" : [ "" ],
					"patching_rect" : [ 1079.0, 474.0, 69.0, 22.0 ],
					"style" : "",
					"text" : "fontsize $1"
				}

			}
, 			{
				"box" : 				{
					"id" : "obj-93",
					"maxclass" : "message",
					"numinlets" : 2,
					"numoutlets" : 1,
					"outlettype" : [ "" ],
					"patching_rect" : [ 955.0, 583.0, 31.0, 22.0 ],
					"style" : "",
					"text" : "100"
				}

			}
, 			{
				"box" : 				{
					"id" : "obj-88",
					"maxclass" : "newobj",
					"numinlets" : 1,
					"numoutlets" : 2,
					"outlettype" : [ "int", "int" ],
					"patching_rect" : [ 889.0, 523.0, 29.5, 22.0 ],
					"style" : "",
					"text" : "t i i"
				}

			}
, 			{
				"box" : 				{
					"id" : "obj-75",
					"maxclass" : "message",
					"numinlets" : 2,
					"numoutlets" : 1,
					"outlettype" : [ "" ],
					"patching_rect" : [ 827.5, 156.0, 177.0, 22.0 ],
					"style" : "",
					"text" : "font \"Futura Passata DISPLAY\""
				}

			}
, 			{
				"box" : 				{
					"id" : "obj-70",
					"maxclass" : "message",
					"numinlets" : 2,
					"numoutlets" : 1,
					"outlettype" : [ "" ],
					"patching_rect" : [ 490.5, 3.0, 38.0, 22.0 ],
					"style" : "",
					"text" : "-0.96"
				}

			}
, 			{
				"box" : 				{
					"id" : "obj-66",
					"maxclass" : "message",
					"numinlets" : 2,
					"numoutlets" : 1,
					"outlettype" : [ "" ],
					"patching_rect" : [ 549.5, 3.0, 34.0, 22.0 ],
					"style" : "",
					"text" : "0.84"
				}

			}
, 			{
				"box" : 				{
					"id" : "obj-32",
					"maxclass" : "number",
					"numinlets" : 1,
					"numoutlets" : 2,
					"outlettype" : [ "", "bang" ],
					"parameter_enable" : 0,
					"patching_rect" : [ 841.0, 54.0, 50.0, 22.0 ],
					"style" : ""
				}

			}
, 			{
				"box" : 				{
					"id" : "obj-26",
					"maxclass" : "message",
					"numinlets" : 2,
					"numoutlets" : 1,
					"outlettype" : [ "" ],
					"patching_rect" : [ 841.0, 83.0, 69.0, 22.0 ],
					"style" : "",
					"text" : "fontsize $1"
				}

			}
, 			{
				"box" : 				{
					"id" : "obj-110",
					"maxclass" : "newobj",
					"numinlets" : 1,
					"numoutlets" : 2,
					"outlettype" : [ "bang", "bang" ],
					"patching_rect" : [ 955.0, 551.5, 54.0, 22.0 ],
					"style" : "",
					"text" : "togedge"
				}

			}
, 			{
				"box" : 				{
					"id" : "obj-109",
					"maxclass" : "toggle",
					"numinlets" : 1,
					"numoutlets" : 1,
					"outlettype" : [ "int" ],
					"parameter_enable" : 0,
					"patching_rect" : [ 889.0, 492.0, 24.0, 24.0 ],
					"style" : ""
				}

			}
, 			{
				"box" : 				{
					"id" : "obj-106",
					"maxclass" : "newobj",
					"numinlets" : 2,
					"numoutlets" : 1,
					"outlettype" : [ "" ],
					"patching_rect" : [ 889.0, 583.0, 54.0, 22.0 ],
					"style" : "",
					"text" : "gate 1 0"
				}

			}
, 			{
				"box" : 				{
					"id" : "obj-92",
					"maxclass" : "message",
					"numinlets" : 2,
					"numoutlets" : 1,
					"outlettype" : [ "" ],
					"patching_rect" : [ 889.0, 614.0, 69.0, 22.0 ],
					"style" : "",
					"text" : "fontsize $1"
				}

			}
, 			{
				"box" : 				{
					"id" : "obj-90",
					"maxclass" : "toggle",
					"numinlets" : 1,
					"numoutlets" : 1,
					"outlettype" : [ "int" ],
					"parameter_enable" : 0,
					"patching_rect" : [ 130.5, 27.0, 24.0, 24.0 ],
					"style" : ""
				}

			}
, 			{
				"box" : 				{
					"fontname" : "Arial",
					"fontsize" : 13.0,
					"id" : "obj-12",
					"maxclass" : "message",
					"numinlets" : 2,
					"numoutlets" : 1,
					"outlettype" : [ "" ],
					"patching_rect" : [ 129.0, 54.0, 87.0, 23.0 ],
					"style" : "",
					"text" : "fullscreen $1"
				}

			}
, 			{
				"box" : 				{
					"fontname" : "Arial",
					"fontsize" : 13.0,
					"id" : "obj-86",
					"maxclass" : "newobj",
					"numinlets" : 0,
					"numoutlets" : 1,
					"outlettype" : [ "bang" ],
					"patcher" : 					{
						"fileversion" : 1,
						"appversion" : 						{
							"major" : 7,
							"minor" : 3,
							"revision" : 5,
							"architecture" : "x64",
							"modernui" : 1
						}
,
						"rect" : [ 25.0, 69.0, 640.0, 480.0 ],
						"bglocked" : 0,
						"openinpresentation" : 0,
						"default_fontsize" : 12.0,
						"default_fontface" : 0,
						"default_fontname" : "Arial",
						"gridonopen" : 1,
						"gridsize" : [ 15.0, 15.0 ],
						"gridsnaponopen" : 1,
						"objectsnaponopen" : 1,
						"statusbarvisible" : 2,
						"toolbarvisible" : 1,
						"lefttoolbarpinned" : 0,
						"toptoolbarpinned" : 0,
						"righttoolbarpinned" : 0,
						"bottomtoolbarpinned" : 0,
						"toolbars_unpinned_last_save" : 0,
						"tallnewobj" : 0,
						"boxanimatetime" : 200,
						"enablehscroll" : 1,
						"enablevscroll" : 1,
						"devicewidth" : 0.0,
						"description" : "",
						"digest" : "",
						"tags" : "",
						"style" : "",
						"subpatcher_template" : "",
						"boxes" : [ 							{
								"box" : 								{
									"comment" : "",
									"id" : "obj-8",
									"index" : 1,
									"maxclass" : "outlet",
									"numinlets" : 1,
									"numoutlets" : 0,
									"patching_rect" : [ 284.0, 224.0, 25.0, 25.0 ],
									"style" : ""
								}

							}
, 							{
								"box" : 								{
									"fontname" : "Arial",
									"fontsize" : 12.0,
									"id" : "obj-2",
									"maxclass" : "newobj",
									"numinlets" : 2,
									"numoutlets" : 2,
									"outlettype" : [ "bang", "" ],
									"patching_rect" : [ 284.0, 137.0, 43.0, 20.0 ],
									"style" : "",
									"text" : "sel 27"
								}

							}
, 							{
								"box" : 								{
									"fontname" : "Arial",
									"fontsize" : 12.0,
									"id" : "obj-1",
									"maxclass" : "newobj",
									"numinlets" : 0,
									"numoutlets" : 4,
									"outlettype" : [ "int", "int", "int", "int" ],
									"patching_rect" : [ 284.0, 110.0, 59.5, 20.0 ],
									"style" : "",
									"text" : "key"
								}

							}
 ],
						"lines" : [ 							{
								"patchline" : 								{
									"destination" : [ "obj-2", 0 ],
									"source" : [ "obj-1", 0 ]
								}

							}
, 							{
								"patchline" : 								{
									"destination" : [ "obj-8", 0 ],
									"source" : [ "obj-2", 0 ]
								}

							}
 ],
						"bgfillcolor_type" : "gradient",
						"bgfillcolor_color1" : [ 0.435294, 0.462745, 0.498039, 1.0 ],
						"bgfillcolor_color2" : [ 0.290196, 0.309804, 0.301961, 1.0 ],
						"bgfillcolor_color" : [ 0.290196, 0.309804, 0.301961, 1.0 ],
						"bgfillcolor_angle" : 270.0,
						"bgfillcolor_proportion" : 0.39
					}
,
					"patching_rect" : [ 167.0, 27.0, 42.0, 23.0 ],
					"saved_object_attributes" : 					{
						"description" : "",
						"digest" : "",
						"globalpatchername" : "",
						"style" : "",
						"tags" : ""
					}
,
					"style" : "",
					"text" : "p esc"
				}

			}
, 			{
				"box" : 				{
					"id" : "obj-83",
					"maxclass" : "newobj",
					"numinlets" : 6,
					"numoutlets" : 1,
					"outlettype" : [ "" ],
					"patching_rect" : [ 659.0, 614.0, 112.0, 22.0 ],
					"style" : "",
					"text" : "scale 0. 0.1 75 150"
				}

			}
, 			{
				"box" : 				{
					"id" : "obj-76",
					"maxclass" : "meter~",
					"numinlets" : 1,
					"numoutlets" : 1,
					"outlettype" : [ "float" ],
					"patching_rect" : [ 746.0, 511.0, 80.0, 13.0 ],
					"style" : ""
				}

			}
, 			{
				"box" : 				{
					"id" : "obj-57",
					"maxclass" : "newobj",
					"numinlets" : 2,
					"numoutlets" : 1,
					"outlettype" : [ "float" ],
					"patching_rect" : [ 659.0, 583.0, 83.0, 22.0 ],
					"style" : "",
					"text" : "snapshot~ 10"
				}

			}
, 			{
				"box" : 				{
					"id" : "obj-54",
					"maxclass" : "toggle",
					"numinlets" : 1,
					"numoutlets" : 1,
					"outlettype" : [ "int" ],
					"parameter_enable" : 0,
					"patching_rect" : [ 614.0, 479.0, 24.0, 24.0 ],
					"style" : ""
				}

			}
, 			{
				"box" : 				{
					"id" : "obj-49",
					"maxclass" : "newobj",
					"numinlets" : 3,
					"numoutlets" : 1,
					"outlettype" : [ "signal" ],
					"patching_rect" : [ 659.0, 551.5, 131.0, 22.0 ],
					"style" : "",
					"text" : "rampsmooth~ 500 500"
				}

			}
, 			{
				"box" : 				{
					"id" : "obj-46",
					"maxclass" : "newobj",
					"numinlets" : 1,
					"numoutlets" : 1,
					"outlettype" : [ "signal" ],
					"patching_rect" : [ 659.0, 523.0, 37.0, 22.0 ],
					"style" : "",
					"text" : "abs~"
				}

			}
, 			{
				"box" : 				{
					"id" : "obj-131",
					"maxclass" : "newobj",
					"numinlets" : 1,
					"numoutlets" : 2,
					"outlettype" : [ "signal", "signal" ],
					"patching_rect" : [ 659.0, 496.0, 37.0, 22.0 ],
					"style" : "",
					"text" : "adc~"
				}

			}
, 			{
				"box" : 				{
					"id" : "obj-126",
					"maxclass" : "newobj",
					"numinlets" : 1,
					"numoutlets" : 2,
					"outlettype" : [ "", "" ],
					"patcher" : 					{
						"fileversion" : 1,
						"appversion" : 						{
							"major" : 7,
							"minor" : 3,
							"revision" : 5,
							"architecture" : "x64",
							"modernui" : 1
						}
,
						"rect" : [ 84.0, 129.0, 677.0, 480.0 ],
						"bglocked" : 0,
						"openinpresentation" : 0,
						"default_fontsize" : 12.0,
						"default_fontface" : 0,
						"default_fontname" : "Arial",
						"gridonopen" : 1,
						"gridsize" : [ 15.0, 15.0 ],
						"gridsnaponopen" : 1,
						"objectsnaponopen" : 1,
						"statusbarvisible" : 2,
						"toolbarvisible" : 1,
						"lefttoolbarpinned" : 0,
						"toptoolbarpinned" : 0,
						"righttoolbarpinned" : 0,
						"bottomtoolbarpinned" : 0,
						"toolbars_unpinned_last_save" : 0,
						"tallnewobj" : 0,
						"boxanimatetime" : 200,
						"enablehscroll" : 1,
						"enablevscroll" : 1,
						"devicewidth" : 0.0,
						"description" : "",
						"digest" : "",
						"tags" : "",
						"style" : "",
						"subpatcher_template" : "",
						"boxes" : [ 							{
								"box" : 								{
									"comment" : "",
									"id" : "obj-3",
									"index" : 2,
									"maxclass" : "outlet",
									"numinlets" : 1,
									"numoutlets" : 0,
									"patching_rect" : [ 497.0, 404.0, 30.0, 30.0 ],
									"style" : ""
								}

							}
, 							{
								"box" : 								{
									"id" : "obj-1",
									"maxclass" : "newobj",
									"numinlets" : 1,
									"numoutlets" : 1,
									"outlettype" : [ "" ],
									"patching_rect" : [ 306.484863, 372.0, 61.0, 22.0 ],
									"style" : "",
									"text" : "append 1"
								}

							}
, 							{
								"box" : 								{
									"id" : "obj-120",
									"maxclass" : "message",
									"numinlets" : 2,
									"numoutlets" : 1,
									"outlettype" : [ "" ],
									"patching_rect" : [ 609.0, 322.0, 37.0, 22.0 ],
									"style" : "",
									"text" : "1 0 1"
								}

							}
, 							{
								"box" : 								{
									"id" : "obj-119",
									"maxclass" : "message",
									"numinlets" : 2,
									"numoutlets" : 1,
									"outlettype" : [ "" ],
									"patching_rect" : [ 526.0, 322.0, 81.0, 22.0 ],
									"style" : "",
									"text" : "0.62 0.22 0.1"
								}

							}
, 							{
								"box" : 								{
									"id" : "obj-117",
									"maxclass" : "message",
									"numinlets" : 2,
									"numoutlets" : 1,
									"outlettype" : [ "" ],
									"patching_rect" : [ 435.666687, 322.0, 87.0, 22.0 ],
									"style" : "",
									"text" : "0.62 0.62 0.62"
								}

							}
, 							{
								"box" : 								{
									"id" : "obj-116",
									"maxclass" : "message",
									"numinlets" : 2,
									"numoutlets" : 1,
									"outlettype" : [ "" ],
									"patching_rect" : [ 396.333313, 322.0, 37.0, 22.0 ],
									"style" : "",
									"text" : "0 0 0"
								}

							}
, 							{
								"box" : 								{
									"id" : "obj-115",
									"maxclass" : "message",
									"numinlets" : 2,
									"numoutlets" : 1,
									"outlettype" : [ "" ],
									"patching_rect" : [ 345.5, 322.0, 47.0, 22.0 ],
									"style" : "",
									"text" : "1 0.5 0"
								}

							}
, 							{
								"box" : 								{
									"id" : "obj-114",
									"maxclass" : "message",
									"numinlets" : 2,
									"numoutlets" : 1,
									"outlettype" : [ "" ],
									"patching_rect" : [ 286.5, 322.0, 57.0, 22.0 ],
									"style" : "",
									"text" : "0.6 0.2 1"
								}

							}
, 							{
								"box" : 								{
									"id" : "obj-112",
									"maxclass" : "message",
									"numinlets" : 2,
									"numoutlets" : 1,
									"outlettype" : [ "" ],
									"patching_rect" : [ 247.333313, 322.0, 37.0, 22.0 ],
									"style" : "",
									"text" : "0 0 1"
								}

							}
, 							{
								"box" : 								{
									"id" : "obj-110",
									"maxclass" : "message",
									"numinlets" : 2,
									"numoutlets" : 1,
									"outlettype" : [ "" ],
									"patching_rect" : [ 207.0, 322.0, 37.0, 22.0 ],
									"style" : "",
									"text" : "1 1 1"
								}

							}
, 							{
								"box" : 								{
									"id" : "obj-109",
									"maxclass" : "message",
									"numinlets" : 2,
									"numoutlets" : 1,
									"outlettype" : [ "" ],
									"patching_rect" : [ 167.0, 322.0, 37.0, 22.0 ],
									"style" : "",
									"text" : "0 1 0"
								}

							}
, 							{
								"box" : 								{
									"id" : "obj-108",
									"maxclass" : "message",
									"numinlets" : 2,
									"numoutlets" : 1,
									"outlettype" : [ "" ],
									"patching_rect" : [ 128.0, 322.0, 37.0, 22.0 ],
									"style" : "",
									"text" : "1 0 0"
								}

							}
, 							{
								"box" : 								{
									"id" : "obj-106",
									"maxclass" : "message",
									"numinlets" : 2,
									"numoutlets" : 1,
									"outlettype" : [ "" ],
									"patching_rect" : [ 89.0, 322.0, 37.0, 22.0 ],
									"style" : "",
									"text" : "1 1 0"
								}

							}
, 							{
								"box" : 								{
									"id" : "obj-95",
									"maxclass" : "newobj",
									"numinlets" : 12,
									"numoutlets" : 12,
									"outlettype" : [ "bang", "bang", "bang", "bang", "bang", "bang", "bang", "bang", "bang", "bang", "bang", "" ],
									"patching_rect" : [ 89.0, 287.0, 495.666656, 22.0 ],
									"style" : "",
									"text" : "sel yellow red green white blue purple orange black grey brown pink"
								}

							}
, 							{
								"box" : 								{
									"id" : "obj-90",
									"maxclass" : "newobj",
									"numinlets" : 2,
									"numoutlets" : 2,
									"outlettype" : [ "", "" ],
									"patching_rect" : [ 89.0, 252.0, 40.0, 22.0 ],
									"style" : "",
									"text" : "zl reg"
								}

							}
, 							{
								"box" : 								{
									"id" : "obj-85",
									"maxclass" : "newobj",
									"numinlets" : 2,
									"numoutlets" : 2,
									"outlettype" : [ "bang", "" ],
									"patching_rect" : [ 50.0, 221.0, 58.0, 22.0 ],
									"style" : "",
									"text" : "sel None"
								}

							}
, 							{
								"box" : 								{
									"id" : "obj-82",
									"maxclass" : "newobj",
									"numinlets" : 1,
									"numoutlets" : 2,
									"outlettype" : [ "", "" ],
									"patching_rect" : [ 50.0, 100.0, 29.5, 22.0 ],
									"style" : "",
									"text" : "t l l"
								}

							}
, 							{
								"box" : 								{
									"id" : "obj-81",
									"maxclass" : "newobj",
									"numinlets" : 2,
									"numoutlets" : 1,
									"outlettype" : [ "int" ],
									"patching_rect" : [ 50.0, 159.0, 29.5, 22.0 ],
									"style" : "",
									"text" : "- 1"
								}

							}
, 							{
								"box" : 								{
									"id" : "obj-80",
									"maxclass" : "newobj",
									"numinlets" : 2,
									"numoutlets" : 2,
									"outlettype" : [ "", "" ],
									"patching_rect" : [ 50.0, 130.0, 39.0, 22.0 ],
									"style" : "",
									"text" : "zl len"
								}

							}
, 							{
								"box" : 								{
									"id" : "obj-79",
									"maxclass" : "newobj",
									"numinlets" : 2,
									"numoutlets" : 2,
									"outlettype" : [ "", "" ],
									"patching_rect" : [ 50.0, 192.0, 58.0, 22.0 ],
									"style" : "",
									"text" : "zl lookup"
								}

							}
, 							{
								"box" : 								{
									"comment" : "",
									"id" : "obj-124",
									"index" : 1,
									"maxclass" : "inlet",
									"numinlets" : 0,
									"numoutlets" : 1,
									"outlettype" : [ "" ],
									"patching_rect" : [ 50.0, 40.0, 30.0, 30.0 ],
									"style" : ""
								}

							}
, 							{
								"box" : 								{
									"comment" : "",
									"id" : "obj-125",
									"index" : 1,
									"maxclass" : "outlet",
									"numinlets" : 1,
									"numoutlets" : 0,
									"patching_rect" : [ 306.484863, 404.0, 30.0, 30.0 ],
									"style" : ""
								}

							}
 ],
						"lines" : [ 							{
								"patchline" : 								{
									"destination" : [ "obj-125", 0 ],
									"source" : [ "obj-1", 0 ]
								}

							}
, 							{
								"patchline" : 								{
									"destination" : [ "obj-1", 0 ],
									"source" : [ "obj-106", 0 ]
								}

							}
, 							{
								"patchline" : 								{
									"destination" : [ "obj-1", 0 ],
									"source" : [ "obj-108", 0 ]
								}

							}
, 							{
								"patchline" : 								{
									"destination" : [ "obj-1", 0 ],
									"source" : [ "obj-109", 0 ]
								}

							}
, 							{
								"patchline" : 								{
									"destination" : [ "obj-1", 0 ],
									"source" : [ "obj-110", 0 ]
								}

							}
, 							{
								"patchline" : 								{
									"destination" : [ "obj-1", 0 ],
									"source" : [ "obj-112", 0 ]
								}

							}
, 							{
								"patchline" : 								{
									"destination" : [ "obj-1", 0 ],
									"source" : [ "obj-114", 0 ]
								}

							}
, 							{
								"patchline" : 								{
									"destination" : [ "obj-1", 0 ],
									"source" : [ "obj-115", 0 ]
								}

							}
, 							{
								"patchline" : 								{
									"destination" : [ "obj-1", 0 ],
									"source" : [ "obj-116", 0 ]
								}

							}
, 							{
								"patchline" : 								{
									"destination" : [ "obj-1", 0 ],
									"source" : [ "obj-117", 0 ]
								}

							}
, 							{
								"patchline" : 								{
									"destination" : [ "obj-1", 0 ],
									"source" : [ "obj-119", 0 ]
								}

							}
, 							{
								"patchline" : 								{
									"destination" : [ "obj-1", 0 ],
									"source" : [ "obj-120", 0 ]
								}

							}
, 							{
								"patchline" : 								{
									"destination" : [ "obj-82", 0 ],
									"source" : [ "obj-124", 0 ]
								}

							}
, 							{
								"patchline" : 								{
									"destination" : [ "obj-85", 0 ],
									"source" : [ "obj-79", 0 ]
								}

							}
, 							{
								"patchline" : 								{
									"destination" : [ "obj-81", 0 ],
									"source" : [ "obj-80", 0 ]
								}

							}
, 							{
								"patchline" : 								{
									"destination" : [ "obj-79", 0 ],
									"source" : [ "obj-81", 0 ]
								}

							}
, 							{
								"patchline" : 								{
									"destination" : [ "obj-79", 1 ],
									"source" : [ "obj-82", 1 ]
								}

							}
, 							{
								"patchline" : 								{
									"destination" : [ "obj-80", 0 ],
									"source" : [ "obj-82", 0 ]
								}

							}
, 							{
								"patchline" : 								{
									"destination" : [ "obj-90", 0 ],
									"source" : [ "obj-85", 1 ]
								}

							}
, 							{
								"patchline" : 								{
									"destination" : [ "obj-3", 0 ],
									"order" : 0,
									"source" : [ "obj-90", 0 ]
								}

							}
, 							{
								"patchline" : 								{
									"destination" : [ "obj-95", 0 ],
									"order" : 1,
									"source" : [ "obj-90", 0 ]
								}

							}
, 							{
								"patchline" : 								{
									"destination" : [ "obj-106", 0 ],
									"source" : [ "obj-95", 0 ]
								}

							}
, 							{
								"patchline" : 								{
									"destination" : [ "obj-108", 0 ],
									"source" : [ "obj-95", 1 ]
								}

							}
, 							{
								"patchline" : 								{
									"destination" : [ "obj-109", 0 ],
									"source" : [ "obj-95", 2 ]
								}

							}
, 							{
								"patchline" : 								{
									"destination" : [ "obj-110", 0 ],
									"source" : [ "obj-95", 3 ]
								}

							}
, 							{
								"patchline" : 								{
									"destination" : [ "obj-112", 0 ],
									"source" : [ "obj-95", 4 ]
								}

							}
, 							{
								"patchline" : 								{
									"destination" : [ "obj-114", 0 ],
									"source" : [ "obj-95", 5 ]
								}

							}
, 							{
								"patchline" : 								{
									"destination" : [ "obj-115", 0 ],
									"source" : [ "obj-95", 6 ]
								}

							}
, 							{
								"patchline" : 								{
									"destination" : [ "obj-116", 0 ],
									"source" : [ "obj-95", 7 ]
								}

							}
, 							{
								"patchline" : 								{
									"destination" : [ "obj-117", 0 ],
									"source" : [ "obj-95", 8 ]
								}

							}
, 							{
								"patchline" : 								{
									"destination" : [ "obj-119", 0 ],
									"source" : [ "obj-95", 9 ]
								}

							}
, 							{
								"patchline" : 								{
									"destination" : [ "obj-120", 0 ],
									"source" : [ "obj-95", 10 ]
								}

							}
 ]
					}
,
					"patching_rect" : [ 562.0, 355.0, 99.0, 22.0 ],
					"saved_object_attributes" : 					{
						"description" : "",
						"digest" : "",
						"globalpatchername" : "",
						"style" : "",
						"tags" : ""
					}
,
					"style" : "",
					"text" : "p last-word-color"
				}

			}
, 			{
				"box" : 				{
					"id" : "obj-123",
					"maxclass" : "newobj",
					"numinlets" : 1,
					"numoutlets" : 1,
					"outlettype" : [ "" ],
					"patching_rect" : [ 562.0, 438.599548, 121.0, 22.0 ],
					"style" : "",
					"text" : "prepend erase_color"
				}

			}
, 			{
				"box" : 				{
					"id" : "obj-72",
					"maxclass" : "message",
					"numinlets" : 2,
					"numoutlets" : 1,
					"outlettype" : [ "" ],
					"patching_rect" : [ 599.0, 83.0, 85.0, 22.0 ],
					"style" : "",
					"text" : "line_length $1"
				}

			}
, 			{
				"box" : 				{
					"id" : "obj-69",
					"maxclass" : "newobj",
					"numinlets" : 1,
					"numoutlets" : 3,
					"outlettype" : [ "", "", "" ],
					"patching_rect" : [ 328.5, 55.0, 53.0, 22.0 ],
					"style" : "",
					"text" : "unjoin 2"
				}

			}
, 			{
				"box" : 				{
					"id" : "obj-68",
					"maxclass" : "newobj",
					"numinlets" : 2,
					"numoutlets" : 2,
					"outlettype" : [ "", "" ],
					"patching_rect" : [ 328.5, 27.0, 63.0, 22.0 ],
					"style" : "",
					"text" : "route size"
				}

			}
, 			{
				"box" : 				{
					"format" : 6,
					"id" : "obj-62",
					"maxclass" : "flonum",
					"numinlets" : 1,
					"numoutlets" : 2,
					"outlettype" : [ "", "bang" ],
					"parameter_enable" : 0,
					"patching_rect" : [ 490.5, 27.0, 50.0, 22.0 ],
					"style" : ""
				}

			}
, 			{
				"box" : 				{
					"format" : 6,
					"id" : "obj-59",
					"maxclass" : "flonum",
					"numinlets" : 1,
					"numoutlets" : 2,
					"outlettype" : [ "", "bang" ],
					"parameter_enable" : 0,
					"patching_rect" : [ 549.5, 27.0, 50.0, 22.0 ],
					"style" : ""
				}

			}
, 			{
				"box" : 				{
					"id" : "obj-60",
					"maxclass" : "newobj",
					"numinlets" : 2,
					"numoutlets" : 1,
					"outlettype" : [ "" ],
					"patching_rect" : [ 497.5, 55.0, 57.0, 22.0 ],
					"style" : "",
					"text" : "pak 0. 0."
				}

			}
, 			{
				"box" : 				{
					"id" : "obj-61",
					"maxclass" : "message",
					"numinlets" : 2,
					"numoutlets" : 1,
					"outlettype" : [ "" ],
					"patching_rect" : [ 497.5, 83.0, 95.0, 22.0 ],
					"style" : "",
					"text" : "position $1 $2 0"
				}

			}
, 			{
				"box" : 				{
					"id" : "obj-52",
					"maxclass" : "newobj",
					"numinlets" : 1,
					"numoutlets" : 2,
					"outlettype" : [ "jit_matrix", "" ],
					"patching_rect" : [ 428.0, 128.0, 396.0, 22.0 ],
					"style" : "",
					"text" : "jit.gl.text mnc @color 1 1 1 1 @fontsize 34 @align 0 @transform_reset 2"
				}

			}
, 			{
				"box" : 				{
					"format" : 6,
					"id" : "obj-50",
					"maxclass" : "flonum",
					"numinlets" : 1,
					"numoutlets" : 2,
					"outlettype" : [ "", "bang" ],
					"parameter_enable" : 0,
					"patching_rect" : [ 1030.0, 298.0, 50.0, 22.0 ],
					"style" : ""
				}

			}
, 			{
				"box" : 				{
					"id" : "obj-48",
					"maxclass" : "newobj",
					"numinlets" : 2,
					"numoutlets" : 1,
					"outlettype" : [ "" ],
					"patching_rect" : [ 992.0, 326.0, 57.0, 22.0 ],
					"style" : "",
					"text" : "pak 0. 0."
				}

			}
, 			{
				"box" : 				{
					"id" : "obj-47",
					"maxclass" : "message",
					"numinlets" : 2,
					"numoutlets" : 1,
					"outlettype" : [ "" ],
					"patching_rect" : [ 992.0, 354.0, 95.0, 22.0 ],
					"style" : "",
					"text" : "position $1 $2 0"
				}

			}
, 			{
				"box" : 				{
					"id" : "obj-37",
					"maxclass" : "button",
					"numinlets" : 1,
					"numoutlets" : 1,
					"outlettype" : [ "bang" ],
					"patching_rect" : [ 818.0, 245.0, 24.0, 24.0 ],
					"style" : ""
				}

			}
, 			{
				"box" : 				{
					"fontname" : "Arial",
					"fontsize" : 13.0,
					"id" : "obj-45",
					"maxclass" : "newobj",
					"numinlets" : 1,
					"numoutlets" : 1,
					"outlettype" : [ "" ],
					"patching_rect" : [ 818.0, 272.0, 48.0, 23.0 ],
					"style" : "",
					"text" : "fontlist"
				}

			}
, 			{
				"box" : 				{
					"fontname" : "Arial",
					"fontsize" : 13.0,
					"id" : "obj-97",
					"maxclass" : "newobj",
					"numinlets" : 1,
					"numoutlets" : 1,
					"outlettype" : [ "" ],
					"patching_rect" : [ 818.0, 326.0, 74.0, 23.0 ],
					"style" : "",
					"text" : "tosymbol"
				}

			}
, 			{
				"box" : 				{
					"fontname" : "Arial",
					"fontsize" : 13.0,
					"id" : "obj-99",
					"maxclass" : "newobj",
					"numinlets" : 1,
					"numoutlets" : 1,
					"outlettype" : [ "" ],
					"patching_rect" : [ 818.0, 354.0, 85.0, 23.0 ],
					"style" : "",
					"text" : "prepend font"
				}

			}
, 			{
				"box" : 				{
					"id" : "obj-100",
					"items" : [ "Apple Braille Outline 6 Dot", ",", "Apple Braille Outline 8 Dot", ",", "Apple Braille Pinpoint 6 Dot", ",", "Apple Braille Pinpoint 8 Dot", ",", "Apple Braille", ",", "Apple Color Emoji", ",", "Apple Symbols", ",", "Apple SD Gothic Neo Regular", ",", ".Apple SD Gothic NeoI Regular", ",", "Apple SD Gothic Neo Medium", ",", ".Apple SD Gothic NeoI Medium", ",", "Apple SD Gothic Neo SemiBold", ",", ".Apple SD Gothic NeoI SemiBold", ",", "Apple SD Gothic Neo Bold", ",", ".Apple SD Gothic NeoI Bold", ",", "Apple SD Gothic Neo Light", ",", ".Apple SD Gothic NeoI Light", ",", "Apple SD Gothic Neo Thin", ",", ".Apple SD Gothic NeoI Thin", ",", "Apple SD Gothic Neo UltraLight", ",", ".Apple SD Gothic NeoI UltraLight", ",", "Apple SD GothicNeo ExtraBold", ",", "Apple SD GothicNeo ExtraBold", ",", "Apple SD Gothic Neo Heavy", ",", ".Apple SD Gothic NeoI Heavy", ",", ".Aqua Kana", ",", "Arial Hebrew", ",", "Arial Hebrew Light", ",", ".Arial Hebrew Desk Interface", ",", ".Arial Hebrew Desk Interface Light", ",", "Arial Hebrew Scholar", ",", "Arial Hebrew Scholar Light", ",", "Avenir Next Condensed Bold", ",", "Avenir Next Condensed Demi Bold", ",", "Avenir Next Condensed Italic", ",", "Avenir Next Condensed Medium", ",", "Avenir Next Condensed Regular", ",", "Avenir Next Condensed Heavy", ",", "Avenir Next Condensed Ultra Light", ",", "Avenir Next Bold", ",", "Avenir Next Demi Bold", ",", "Avenir Next Italic", ",", "Avenir Next Medium", ",", "Avenir Next Regular", ",", "Avenir Next Heavy", ",", "Avenir Next Ultra Light", ",", "Avenir Book", ",", "Avenir Book Oblique", ",", "Avenir Black", ",", "Avenir Black Oblique", ",", "Avenir Heavy", ",", "Avenir Heavy Oblique", ",", "Avenir Light", ",", "Avenir Light Oblique", ",", "Avenir Medium", ",", "Avenir Medium Oblique", ",", "Avenir Oblique", ",", "Avenir Roman", ",", "Courier", ",", "Courier Oblique", ",", "Geeza Pro Regular", ",", "Geeza Pro Bold", ",", ".Geeza Pro Interface Regular", ",", ".Geeza Pro Interface Bold", ",", ".Geeza Pro Interface Light", ",", ".Geeza PUA", ",", "Geneva", ",", "Helvetica", ",", "Helvetica Oblique", ",", "Helvetica Light", ",", "Helvetica Light Oblique", ",", "Helvetica Neue", ",", "Helvetica Neue Condensed Bold", ",", "Helvetica Neue UltraLight", ",", "Helvetica Neue Light", ",", "Helvetica Neue Condensed Black", ",", "Helvetica Neue Medium", ",", "Helvetica Neue Thin", ",", ".Helvetica Neue DeskInterface Regular", ",", ".Helvetica Neue DeskInterface Bold", ",", ".Helvetica Neue DeskInterface Italic", ",", ".Helvetica Neue DeskInterface Medium P4", ",", ".Helvetica Neue DeskInterface Medium Italic P4", ",", ".Helvetica Neue DeskInterface Light", ",", ".Helvetica Neue DeskInterface Thin", ",", ".Helvetica Neue DeskInterface UltraLight", ",", ".Helvetica Neue DeskInterface Heavy", ",", "Hiragino Sans GB W3", ",", ".Hiragino Sans GB Interface W3", ",", "Hiragino Sans GB W6", ",", ".Hiragino Sans GB Interface W6", ",", ".Keyboard", ",", "Kohinoor Devanagari Regular", ",", "Kohinoor Devanagari Medium", ",", "Kohinoor Devanagari Semibold", ",", "Kohinoor Devanagari Bold", ",", "Kohinoor Devanagari Light", ",", "Kohinoor Bangla", ",", "Kohinoor Bangla Semibold", ",", "Kohinoor Bangla Medium", ",", "Kohinoor Bangla Light", ",", "Kohinoor Telugu", ",", "Kohinoor Telugu Semibold", ",", "Kohinoor Telugu Medium", ",", "Kohinoor Telugu Light", ",", ".LastResort", ",", "Lucida Grande", ",", ".Lucida Grande UI Regular", ",", ".Lucida Grande UI Bold", ",", "Marker Felt Thin", ",", "Marker Felt Wide", ",", "Menlo Regular", ",", "Menlo Bold", ",", "Menlo Italic", ",", "Monaco", ",", "Noteworthy Light", ",", "Noteworthy Bold", ",", "Optima Regular", ",", "Optima Bold", ",", "Optima Italic", ",", "Optima ExtraBlack", ",", "Palatino", ",", "PingFang HK Regular", ",", "PingFang TC Regular", ",", "PingFang SC Regular", ",", "PingFang HK Medium", ",", "PingFang TC Medium", ",", "PingFang SC Medium", ",", "PingFang HK Semibold", ",", "PingFang TC Semibold", ",", "PingFang SC Semibold", ",", "PingFang HK Light", ",", "PingFang TC Light", ",", "PingFang SC Light", ",", "PingFang HK Thin", ",", "PingFang TC Thin", ",", "PingFang SC Thin", ",", "PingFang HK Ultralight", ",", "PingFang TC Ultralight", ",", "PingFang SC Ultralight", ",", ".PingFang HK Regular", ",", ".PingFang TC Regular", ",", ".PingFang SC Regular", ",", ".PingFang HK Medium", ",", ".PingFang TC Medium", ",", ".PingFang SC Medium", ",", ".PingFang HK Semibold", ",", ".PingFang TC Semibold", ",", ".PingFang SC Semibold", ",", ".PingFang HK Light", ",", ".PingFang TC Light", ",", ".PingFang SC Light", ",", ".PingFang HK Thin", ",", ".PingFang TC Thin", ",", ".PingFang SC Thin", ",", ".PingFang HK Ultralight", ",", ".PingFang TC Ultralight", ",", ".PingFang SC Ultralight", ",", "System Font Black", ",", "System Font Bold", ",", "System Font Heavy", ",", "System Font Light", ",", "System Font Medium", ",", "System Font Regular", ",", "System Font Semibold", ",", "System Font Thin", ",", "System Font Ultralight", ",", "System Font Bold", ",", "System Font Bold G1", ",", "System Font Bold G2", ",", "System Font Bold G3", ",", "System Font Bold Italic G1", ",", "System Font Bold Italic G2", ",", "System Font Bold Italic G3", ",", "System Font Heavy", ",", "System Font Light", ",", "System Font Medium", ",", "System Font Regular", ",", "System Font Regular G1", ",", "System Font Regular G2", ",", "System Font Regular G3", ",", "System Font Italic", ",", "System Font Italic G1", ",", "System Font Italic G2", ",", "System Font Italic G3", ",", "System Font Semibold", ",", "Heiti TC Light", ",", "Heiti SC Light", ",", "Heiti TC Medium", ",", "Heiti SC Medium", ",", ".HeitiUI TC Thin", ",", ".HeitiUI SC Thin", ",", ".HeitiUI GB18030PUA Thin", ",", ".HeitiUI K Thin", ",", ".HeitiUI J Thin", ",", ".HeitiUI TC Ultra Light", ",", ".HeitiUI SC Ultra Light", ",", ".HeitiUI GB18030PUA Ultra Light", ",", ".HeitiUI K Ultra Light", ",", ".HeitiUI J Ultra Light", ",", "Symbol", ",", "Thonburi", ",", "Thonburi Light", ",", "Times Roman", ",", "Times Bold", ",", "Times Italic", ",", "Zapf Dingbats", ",", "Hiragino Mincho ProN W3", ",", "Hiragino Mincho Pro W3", ",", "Hiragino Mincho ProN W6", ",", "Hiragino Mincho Pro W6", ",", "Hiragino Sans W0", ",", ".Hiragino Kaku Gothic Interface W0", ",", "Hiragino Sans W1", ",", ".Hiragino Kaku Gothic Interface W1", ",", "Hiragino Sans W2", ",", ".Hiragino Kaku Gothic Interface W2", ",", "Hiragino Sans W3", ",", ".Hiragino Kaku Gothic Interface W3", ",", "Hiragino Kaku Gothic ProN W3", ",", "Hiragino Kaku Gothic Pro W3", ",", "Hiragino Sans W4", ",", ".Hiragino Kaku Gothic Interface W4", ",", "Hiragino Sans W5", ",", ".Hiragino Kaku Gothic Interface W5", ",", "Hiragino Sans W6", ",", ".Hiragino Kaku Gothic Interface W6", ",", "Hiragino Kaku Gothic ProN W6", ",", "Hiragino Kaku Gothic Pro W6", ",", "Hiragino Sans W7", ",", ".Hiragino Kaku Gothic Interface W7", ",", "Hiragino Sans W8", ",", ".Hiragino Kaku Gothic Interface W8", ",", "Hiragino Kaku Gothic Std W8", ",", "Hiragino Kaku Gothic StdN W8", ",", "Hiragino Sans W9", ",", ".Hiragino Kaku Gothic Interface W9", ",", "Adobe Caslon Pro", ",", "Adobe Caslon Pro Semibold", ",", "Adobe Arabic Bold", ",", "Adobe Arabic Italic", ",", "Adobe Arabic Regular", ",", "Adobe Devanagari", ",", "Adobe Fangsong Std R", ",", "Adobe Fan Heiti Std B", ",", "Adobe Gothic Std B", ",", "Adobe Hebrew Bold", ",", "Adobe Hebrew Italic", ",", "Adobe Hebrew Regular", ",", "Adobe Heiti Std R", ",", "Adobe Kaiti Std R", ",", "Adobe Ming Std L", ",", "Adobe Myungjo Std M", ",", "Adobe Naskh Medium", ",", "Adobe Song Std L", ",", "Adobe Garamond Pro", ",", "Al Nile", ",", ".Al Nile PUA", ",", "Al Tarikh Regular", ",", ".Al Tarikh PUA", ",", "Al Bayan Plain", ",", ".Al Bayan PUA Plain", ",", "American Typewriter", ",", "American Typewriter Light", ",", "American Typewriter Condensed", ",", "American Typewriter Condensed Light", ",", "Andale Mono", ",", "Apple Chancery", ",", "AppleGothic Regular", ",", "AppleMyungjo Regular", ",", "Arial Black", ",", "Arial Narrow", ",", "Arial Rounded MT Bold", ",", "Arial Unicode MS", ",", "Arial", ",", "Athelas Regular", ",", "Athelas Italic", ",", "Athelas Bold", ",", "Ayuthaya", ",", "Baghdad Regular", ",", ".Baghdad PUA", ",", "Bangla MN", ",", "Bangla Sangam MN", ",", "Baoli SC Regular", ",", "Baskerville", ",", "Baskerville SemiBold", ",", "Beirut Regular", ",", ".Beirut PUA", ",", "Big Caslon Medium", ",", "Birch Std", ",", "Blackoak Std", ",", "Bodoni 72 Oldstyle Book", ",", "Bodoni 72 Oldstyle Bold", ",", "Bodoni 72 Smallcaps Book", ",", "Bodoni 72 Book", ",", "Bodoni 72 Bold", ",", "Bodoni Ornaments", ",", "Bradley Hand Bold", ",", "Brush Script MT Italic", ",", "Brush Script Std Medium", ",", "Chalkboard", ",", "Chalkboard SE Light", ",", "Chalkboard SE Regular", ",", "Chalkboard SE Bold", ",", "Chalkduster", ",", "Chaparral Pro Light Italic", ",", "Chaparral Pro", ",", "Charlemagne Std Bold", ",", "Charter Roman", ",", "Charter Italic", ",", "Charter Bold", ",", "Charter Black", ",", "Cochin", ",", "Comic Sans MS", ",", "Cooper Std Black", ",", "Copperplate", ",", "Copperplate Light", ",", "Corsiva Hebrew", ",", "Courier New", ",", "Damascus Regular", ",", ".Damascus PUA", ",", "Damascus Light", ",", ".Damascus PUA Light", ",", "Damascus Medium", ",", ".Damascus PUA Medium", ",", "Damascus Bold", ",", "Damascus Semi Bold", ",", ".Damascus PUA Semi Bold", ",", "DecoType Naskh Regular", ",", ".DecoType Naskh PUA", ",", "Devanagari Sangam MN", ",", "Devanagari MT", ",", "Didot", ",", "DIN Alternate Bold", ",", "DIN Condensed Bold", ",", "Diwan Kufi Regular", ",", ".Diwan Kufi PUA", ",", "Diwan Thuluth Regular", ",", "Euphemia UCAS", ",", "Farah Regular", ",", ".Farah PUA", ",", "Farisi Regular", ",", "Futura Medium", ",", "Futura Condensed Medium", ",", "Futura Condensed ExtraBold", ",", "Georgia", ",", "Giddyup Std", ",", "Gill Sans", ",", "Gill Sans SemiBold", ",", "Gill Sans UltraBold", ",", "Gill Sans Light", ",", "Gujarati Sangam MN", ",", "Gujarati MT", ",", "GungSeo Regular", ",", "Gurmukhi MN", ",", "Gurmukhi Sangam MN", ",", "Gurmukhi MT", ",", "Hannotate SC Regular", ",", "Hannotate TC Regular", ",", "Hannotate SC Bold", ",", "Hannotate TC Bold", ",", "HanziPen SC Regular", ",", "HanziPen TC Regular", ",", "HanziPen SC Bold", ",", "HanziPen TC Bold", ",", "HeadLineA Regular", ",", "Herculanum", ",", "Hobo Std Medium", ",", "Hoefler Text Ornaments", ",", "Hoefler Text", ",", "Hoefler Text Black", ",", "Impact", ",", "InaiMathi", ",", "Iowan Old Style Roman", ",", "Iowan Old Style Bold", ",", "Iowan Old Style Italic", ",", "Iowan Old Style Black", ",", "Iowan Old Style Titling", ",", "ITF Devanagari Book", ",", "ITF Devanagari Bold", ",", "ITF Devanagari Demi", ",", "ITF Devanagari Light", ",", "ITF Devanagari Medium", ",", "ITF Devanagari Marathi Book", ",", "ITF Devanagari Marathi Bold", ",", "ITF Devanagari Marathi Demi", ",", "ITF Devanagari Marathi Light", ",", "ITF Devanagari Marathi Medium", ",", "Kailasa Regular", ",", "Kailasa Bold", ",", "Kaiti SC Black", ",", "Kaiti SC Bold", ",", "Kaiti TC Bold", ",", "Kaiti SC Regular", ",", "STKaiti", ",", "Kaiti TC Regular", ",", "Kannada MN", ",", "Kannada Sangam MN", ",", "Kefa Regular", ",", "Kefa Bold", ",", "Khmer MN", ",", "Khmer Sangam MN", ",", "Klee Demibold", ",", "Klee Medium", ",", "Kokonor Regular", ",", "Kozuka Gothic Pr6N B", ",", "Kozuka Gothic Pr6N EL", ",", "Kozuka Gothic Pr6N H", ",", "Kozuka Gothic Pr6N L", ",", "Kozuka Gothic Pr6N M", ",", "Kozuka Gothic Pr6N R", ",", "Kozuka Gothic Pro B", ",", "Kozuka Gothic Pro EL", ",", "Kozuka Gothic Pro H", ",", "Kozuka Gothic Pro L", ",", "Kozuka Gothic Pro M", ",", "Kozuka Gothic Pro R", ",", "Kozuka Mincho Pr6N B", ",", "Kozuka Mincho Pr6N EL", ",", "Kozuka Mincho Pr6N H", ",", "Kozuka Mincho Pr6N L", ",", "Kozuka Mincho Pr6N M", ",", "Kozuka Mincho Pr6N R", ",", "Kozuka Mincho Pro B", ",", "Kozuka Mincho Pro EL", ",", "Kozuka Mincho Pro H", ",", "Kozuka Mincho Pro L", ",", "Kozuka Mincho Pro M", ",", "Kozuka Mincho Pro R", ",", "Krungthep", ",", "KufiStandardGK Regular", ",", ".KufiStandardGK PUA", ",", "Lantinghei SC Demibold", ",", "Lantinghei SC Extralight", ",", "Lantinghei SC Heavy", ",", "Lantinghei TC Demibold", ",", "Lantinghei TC Extralight", ",", "Lantinghei TC Heavy", ",", "Lao MN", ",", "Lao Sangam MN", ",", "Letter Gothic Std Bold", ",", "Letter Gothic Std Bold Slanted", ",", "Letter Gothic Std Slanted", ",", "Letter Gothic Std Medium", ",", "Libian SC Regular", ",", "Lithos Pro Black", ",", "Lithos Pro", ",", "Luminari", ",", "Malayalam MN", ",", "Malayalam Sangam MN", ",", "Marion Regular", ",", "Marion Italic", ",", "Marion Bold", ",", "Mesquite Std Medium", ",", "Microsoft Sans Serif", ",", "Minion Pro Bold Cond", ",", "Minion Pro Medium", ",", "Minion Pro", ",", "Minion Pro Semibold", ",", "Mishafi Gold Regular", ",", "Mishafi Regular", ",", "Mshtakan", ",", "Mshtakan Oblique", ",", "Muna Regular", ",", ".Muna PUA", ",", "Muna Bold", ",", "Muna Black", ",", ".Muna PUA Black", ",", "Myanmar MN", ",", "Myanmar Sangam MN", ",", "Myriad Arabic", ",", "Myriad Hebrew", ",", "Myriad Pro Bold Condensed", ",", "Myriad Pro Condensed", ",", "Myriad Pro", ",", "Myriad Pro Semibold", ",", "Nadeem Regular", ",", ".Nadeem PUA", ",", "NanumGothic", ",", "NanumGothic ExtraBold", ",", "NanumMyeongjo", ",", "NanumMyeongjo ExtraBold", ",", "Nanum Brush Script", ",", "Nanum Pen Script", ",", "New Peninim MT", ",", "New Peninim MT Inclined", ",", "New Peninim MT Bold Inclined", ",", "GB18030 Bitmap", ",", "Nueva Std Bold", ",", "Nueva Std Bold Condensed", ",", "Nueva Std Condensed", ",", "Nueva Std Italic", ",", "OCR A Std", ",", "Orator Std Slanted", ",", "Orator Std Medium", ",", "Oriya MN", ",", "Oriya Sangam MN", ",", "Osaka", ",", "Osaka-Mono", ",", "Papyrus Condensed", ",", "Papyrus", ",", "PCMyungjo Regular", ",", "Phosphate Inline", ",", "Phosphate Solid", ",", "PilGi Regular", ",", "Plantagenet Cherokee", ",", "Poplar Std Black", ",", "Prestige Elite Std Bold", ",", "PT Mono", ",", "PT Sans", ",", "PT Sans Narrow", ",", "PT Sans Caption", ",", "PT Serif", ",", "PT Serif Caption", ",", "Raanana", ",", "Rosewood Std", ",", "Sana Regular", ",", ".Sana PUA", ",", "Sathu", ",", "Savoye LET Plain:1.0", ",", "Savoye LET Plain CC.:1.0", ",", "Seravek", ",", "Seravek Medium", ",", "Seravek Light", ",", "Seravek ExtraLight", ",", "Shree Devanagari 714", ",", "SignPainter-HouseScript", ",", "Silom", ",", "Sinhala MN", ",", "Sinhala Sangam MN", ",", "Skia", ",", "Snell Roundhand", ",", "Snell Roundhand Black", ",", "Songti SC Black", ",", "Songti SC Bold", ",", "Songti TC Bold", ",", "Songti SC Light", ",", "STSong", ",", "Songti TC Light", ",", "Songti SC Regular", ",", "Songti TC Regular", ",", "Stencil Std Bold", ",", "STIXGeneral-Regular", ",", "STIXGeneral-Bold", ",", "STIXGeneral-BoldItalic", ",", "STIXGeneral-Italic", ",", "STIXIntegralsD-Bold", ",", "STIXIntegralsD-Regular", ",", "STIXIntegralsSm-Bold", ",", "STIXIntegralsSm-Regular", ",", "STIXIntegralsUp-Bold", ",", "STIXIntegralsUpD-Bold", ",", "STIXIntegralsUpD-Regular", ",", "STIXIntegralsUp-Regular", ",", "STIXIntegralsUpSm-Bold", ",", "STIXIntegralsUpSm-Regular", ",", "STIXNonUnicode-Regular", ",", "STIXNonUnicode-Bold", ",", "STIXNonUnicode-BoldItalic", ",", "STIXNonUnicode-Italic", ",", "STIXSizeFiveSym-Regular", ",", "STIXSizeFourSym-Bold", ",", "STIXSizeFourSym-Regular", ",", "STIXSizeOneSym-Bold", ",", "STIXSizeOneSym-Regular", ",", "STIXSizeThreeSym-Bold", ",", "STIXSizeThreeSym-Regular", ",", "STIXSizeTwoSym-Bold", ",", "STIXSizeTwoSym-Regular", ",", "STIXVariants-Regular", ",", "STIXVariants-Bold", ",", "Sukhumvit Set Thin", ",", "Sukhumvit Set Light", ",", "Sukhumvit Set Text", ",", "Sukhumvit Set Medium", ",", "Sukhumvit Set Semi Bold", ",", "Sukhumvit Set Bold", ",", "Superclarendon Regular", ",", "Superclarendon Italic", ",", "Superclarendon Light", ",", "Superclarendon Bold", ",", "Superclarendon Black", ",", "Tahoma", ",", "Tamil MN", ",", "Tamil Sangam MN", ",", "Tekton Pro Bold", ",", "Tekton Pro Bold Condensed", ",", "Tekton Pro Bold Extended", ",", "Tekton Pro Bold Oblique", ",", "Telugu MN", ",", "Telugu Sangam MN", ",", "Times New Roman", ",", "Trajan Pro", ",", "Trattatello", ",", "Trebuchet MS", ",", "Tsukushi A Round Gothic Regular", ",", "Tsukushi A Round Gothic Bold", ",", "Tsukushi B Round Gothic Regular", ",", "Tsukushi B Round Gothic Bold", ",", "Verdana", ",", "Waseem Regular", ",", "Waseem Light", ",", "Wawati SC Regular", ",", "Wawati TC Regular", ",", "Webdings", ",", "Weibei SC Bold", ",", "Weibei TC Bold", ",", "Wingdings 2", ",", "Wingdings 3", ",", "Wingdings", ",", "Xingkai SC Bold", ",", "Xingkai SC Light", ",", "YuGothic Bold", ",", "YuGothic Medium", ",", "Yuanti SC Bold", ",", "Yuanti TC Bold", ",", "Yuanti SC Light", ",", "Yuanti TC Light", ",", "Yuanti SC Regular", ",", "Yuanti TC Regular", ",", "YuMincho Medium", ",", "YuMincho Demibold", ",", "YuMincho +36p Kana Medium", ",", "YuMincho +36p Kana Demibold", ",", "Yuppy SC Regular", ",", "Yuppy TC Regular", ",", "Zapfino", ",", "Hiragino Maru Gothic Pro W4", ",", "Hiragino Maru Gothic ProN W4", ",", "LiSong Pro", ",", "LiHei Pro", ",", "STFangsong", ",", "STXihei", ",", "STHeiti", ",", "SeoulNamsan CB", ",", "TeamViewer12", ",", "TeamViewer13", ",", "Lato Regular", ",", "Abel Regular", ",", "Advent Pro Bold", ",", "Advent Pro ExtraLight", ",", "Advent Pro Light", ",", "Advent Pro Medium", ",", "Advent Pro Regular", ",", "Advent Pro SemiBold", ",", "Advent Pro Thin", ",", "Agan 45", ",", "Agan S 55", ",", "Agan 55", ",", "Agan S 65", ",", "Agan 65", ",", "Agan S 75", ",", "Agan 75", ",", "Roboto Slab Regular", ",", "Roboto Slab Light", ",", "Lato Thin", ",", "Lato Light", ",", "Futura Passata DISPLAY" ],
					"maxclass" : "umenu",
					"numinlets" : 1,
					"numoutlets" : 3,
					"outlettype" : [ "int", "", "" ],
					"parameter_enable" : 0,
					"patching_rect" : [ 818.0, 298.0, 139.0, 22.0 ],
					"style" : ""
				}

			}
, 			{
				"box" : 				{
					"id" : "obj-4",
					"maxclass" : "newobj",
					"numinlets" : 1,
					"numoutlets" : 2,
					"outlettype" : [ "jit_matrix", "" ],
					"patching_rect" : [ 722.0, 384.0, 403.0, 22.0 ],
					"style" : "",
					"text" : "jit.gl.text mnc @color 1 1 1 1 @fontsize 400 @align 1 @transform_reset 2"
				}

			}
, 			{
				"box" : 				{
					"id" : "obj-157",
					"maxclass" : "newobj",
					"numinlets" : 1,
					"numoutlets" : 1,
					"outlettype" : [ "" ],
					"patching_rect" : [ 722.0, 199.0, 73.0, 22.0 ],
					"style" : "",
					"text" : "fromsymbol"
				}

			}
, 			{
				"box" : 				{
					"id" : "obj-150",
					"maxclass" : "newobj",
					"numinlets" : 1,
					"numoutlets" : 4,
					"outlettype" : [ "bang", "bang", "bang", "bang" ],
					"patching_rect" : [ 1046.5, 191.0, 54.0, 22.0 ],
					"style" : "",
					"text" : "t b b b b"
				}

			}
, 			{
				"box" : 				{
					"id" : "obj-43",
					"maxclass" : "newobj",
					"numinlets" : 0,
					"numoutlets" : 1,
					"outlettype" : [ "" ],
					"patching_rect" : [ 463.0, 350.599548, 67.0, 22.0 ],
					"style" : "",
					"text" : "r audio-init"
				}

			}
, 			{
				"box" : 				{
					"id" : "obj-44",
					"linecount" : 2,
					"maxclass" : "comment",
					"numinlets" : 1,
					"numoutlets" : 0,
					"patching_rect" : [ 358.0, 540.5, 160.0, 33.0 ],
					"style" : "",
					"text" : "use pkill to stop the process running the Python script"
				}

			}
, 			{
				"box" : 				{
					"id" : "obj-42",
					"linecount" : 4,
					"maxclass" : "comment",
					"numinlets" : 1,
					"numoutlets" : 0,
					"patching_rect" : [ 129.0, 583.0, 150.0, 60.0 ],
					"style" : "",
					"text" : "use the \"shell\" external to run an Applescript script that in turn runs the Python script"
				}

			}
, 			{
				"box" : 				{
					"id" : "obj-35",
					"linecount" : 2,
					"maxclass" : "comment",
					"numinlets" : 1,
					"numoutlets" : 0,
					"patching_rect" : [ 181.0, 378.5, 154.0, 33.0 ],
					"style" : "",
					"text" : "remove \"Macintosh HD:\" from the path"
				}

			}
, 			{
				"box" : 				{
					"id" : "obj-31",
					"maxclass" : "comment",
					"numinlets" : 1,
					"numoutlets" : 0,
					"patching_rect" : [ 127.0, 358.0, 154.0, 20.0 ],
					"style" : "",
					"text" : "output the current directory"
				}

			}
, 			{
				"box" : 				{
					"id" : "obj-28",
					"maxclass" : "newobj",
					"numinlets" : 3,
					"numoutlets" : 3,
					"outlettype" : [ "bang", "bang", "" ],
					"patching_rect" : [ 638.5, 185.0, 85.0, 22.0 ],
					"style" : "",
					"text" : "sel /start /stop"
				}

			}
, 			{
				"box" : 				{
					"id" : "obj-20",
					"linecount" : 2,
					"maxclass" : "comment",
					"numinlets" : 1,
					"numoutlets" : 0,
					"patching_rect" : [ 107.0, 316.0, 150.0, 33.0 ],
					"style" : "",
					"text" : "the Python script will start when the patch loads"
				}

			}
, 			{
				"box" : 				{
					"id" : "obj-2",
					"maxclass" : "newobj",
					"numinlets" : 1,
					"numoutlets" : 2,
					"outlettype" : [ "", "bang" ],
					"patching_rect" : [ 142.0, 478.0, 30.0, 22.0 ],
					"style" : "",
					"text" : "t l b"
				}

			}
, 			{
				"box" : 				{
					"id" : "obj-25",
					"maxclass" : "newobj",
					"numinlets" : 1,
					"numoutlets" : 2,
					"outlettype" : [ "", "int" ],
					"patching_rect" : [ 107.0, 414.0, 30.0, 22.0 ],
					"style" : "",
					"text" : "t l 2"
				}

			}
, 			{
				"box" : 				{
					"id" : "obj-24",
					"maxclass" : "newobj",
					"numinlets" : 2,
					"numoutlets" : 2,
					"outlettype" : [ "", "" ],
					"patching_rect" : [ 107.0, 449.599548, 54.0, 22.0 ],
					"style" : "",
					"text" : "gate 2 1"
				}

			}
, 			{
				"box" : 				{
					"id" : "obj-40",
					"maxclass" : "comment",
					"numinlets" : 1,
					"numoutlets" : 0,
					"patching_rect" : [ 211.0, 267.599548, 117.0, 20.0 ],
					"style" : "",
					"text" : "stop Python script"
				}

			}
, 			{
				"box" : 				{
					"id" : "obj-36",
					"maxclass" : "comment",
					"numinlets" : 1,
					"numoutlets" : 0,
					"patching_rect" : [ 60.0, 267.599548, 117.0, 20.0 ],
					"style" : "",
					"text" : "restart Python script"
				}

			}
, 			{
				"box" : 				{
					"id" : "obj-29",
					"maxclass" : "button",
					"numinlets" : 1,
					"numoutlets" : 1,
					"outlettype" : [ "bang" ],
					"patching_rect" : [ 187.0, 265.599548, 24.0, 24.0 ],
					"style" : ""
				}

			}
, 			{
				"box" : 				{
					"id" : "obj-21",
					"maxclass" : "message",
					"numinlets" : 2,
					"numoutlets" : 1,
					"outlettype" : [ "" ],
					"patching_rect" : [ 187.0, 546.0, 169.0, 22.0 ],
					"style" : "",
					"text" : "pkill -f speech-to-text/listen.py"
				}

			}
, 			{
				"box" : 				{
					"id" : "obj-22",
					"maxclass" : "button",
					"numinlets" : 1,
					"numoutlets" : 1,
					"outlettype" : [ "bang" ],
					"patching_rect" : [ 37.0, 265.599548, 24.0, 24.0 ],
					"style" : ""
				}

			}
, 			{
				"box" : 				{
					"id" : "obj-3",
					"maxclass" : "message",
					"numinlets" : 2,
					"numoutlets" : 1,
					"outlettype" : [ "" ],
					"patching_rect" : [ 37.0, 511.0, 132.0, 22.0 ],
					"style" : "",
					"text" : "osascript listen.scpt $1"
				}

			}
, 			{
				"box" : 				{
					"id" : "obj-55",
					"linecount" : 2,
					"maxclass" : "comment",
					"numinlets" : 1,
					"numoutlets" : 0,
					"patching_rect" : [ 167.0, 438.599548, 322.0, 33.0 ],
					"style" : "",
					"text" : "when the patch loads, wait to start the Python script until the working directory AND the audio device index are set"
				}

			}
, 			{
				"box" : 				{
					"id" : "obj-53",
					"maxclass" : "comment",
					"numinlets" : 1,
					"numoutlets" : 0,
					"patching_rect" : [ 332.0, 641.0, 133.0, 20.0 ],
					"style" : "",
					"text" : "Python script is running"
				}

			}
, 			{
				"box" : 				{
					"id" : "obj-39",
					"maxclass" : "newobj",
					"numinlets" : 1,
					"numoutlets" : 2,
					"outlettype" : [ "bang", "" ],
					"patching_rect" : [ 37.0, 414.0, 30.0, 22.0 ],
					"style" : "",
					"text" : "t b l"
				}

			}
, 			{
				"box" : 				{
					"id" : "obj-33",
					"maxclass" : "message",
					"numinlets" : 2,
					"numoutlets" : 1,
					"outlettype" : [ "" ],
					"patching_rect" : [ 99.5, 546.0, 43.0, 22.0 ],
					"style" : "",
					"text" : "wd $1"
				}

			}
, 			{
				"box" : 				{
					"id" : "obj-18",
					"maxclass" : "newobj",
					"numinlets" : 1,
					"numoutlets" : 0,
					"patching_rect" : [ 37.0, 614.0, 70.0, 22.0 ],
					"style" : "",
					"text" : "print stdout"
				}

			}
, 			{
				"box" : 				{
					"id" : "obj-15",
					"maxclass" : "newobj",
					"numinlets" : 1,
					"numoutlets" : 2,
					"outlettype" : [ "", "bang" ],
					"patching_rect" : [ 37.0, 546.0, 30.0, 22.0 ],
					"style" : "",
					"text" : "t l b"
				}

			}
, 			{
				"box" : 				{
					"id" : "obj-9",
					"maxclass" : "newobj",
					"numinlets" : 1,
					"numoutlets" : 1,
					"outlettype" : [ "int" ],
					"patching_rect" : [ 311.0, 602.0, 24.0, 22.0 ],
					"style" : "",
					"text" : "t 0"
				}

			}
, 			{
				"box" : 				{
					"id" : "obj-27",
					"maxclass" : "toggle",
					"numinlets" : 1,
					"numoutlets" : 1,
					"outlettype" : [ "int" ],
					"parameter_enable" : 0,
					"patching_rect" : [ 286.0, 630.0, 42.0, 42.0 ],
					"style" : ""
				}

			}
, 			{
				"box" : 				{
					"id" : "obj-23",
					"maxclass" : "newobj",
					"numinlets" : 1,
					"numoutlets" : 1,
					"outlettype" : [ "int" ],
					"patching_rect" : [ 286.0, 602.0, 24.0, 22.0 ],
					"style" : "",
					"text" : "t 1"
				}

			}
, 			{
				"box" : 				{
					"id" : "obj-34",
					"maxclass" : "newobj",
					"numinlets" : 1,
					"numoutlets" : 2,
					"outlettype" : [ "", "int" ],
					"patching_rect" : [ 37.0, 384.0, 139.0, 22.0 ],
					"style" : "",
					"text" : "conformpath native boot"
				}

			}
, 			{
				"box" : 				{
					"id" : "obj-13",
					"maxclass" : "newobj",
					"numinlets" : 2,
					"numoutlets" : 2,
					"outlettype" : [ "", "" ],
					"patching_rect" : [ 37.0, 449.599548, 43.0, 22.0 ],
					"style" : "",
					"text" : "buddy"
				}

			}
, 			{
				"box" : 				{
					"id" : "obj-11",
					"maxclass" : "newobj",
					"numinlets" : 0,
					"numoutlets" : 1,
					"outlettype" : [ "" ],
					"patching_rect" : [ 37.0, 321.5, 67.0, 22.0 ],
					"style" : "",
					"text" : "r audio-init"
				}

			}
, 			{
				"box" : 				{
					"id" : "obj-10",
					"maxclass" : "newobj",
					"numinlets" : 0,
					"numoutlets" : 1,
					"outlettype" : [ "" ],
					"patching_rect" : [ 1046.5, 134.0, 67.0, 22.0 ],
					"style" : "",
					"text" : "r audio-init"
				}

			}
, 			{
				"box" : 				{
					"fontname" : "Arial",
					"fontsize" : 12.0,
					"id" : "obj-6",
					"maxclass" : "newobj",
					"numinlets" : 1,
					"numoutlets" : 0,
					"patching_rect" : [ 1045.0, 81.0, 69.0, 22.0 ],
					"style" : "",
					"text" : "s audio-init"
				}

			}
, 			{
				"box" : 				{
					"fontname" : "Arial",
					"fontsize" : 12.0,
					"id" : "obj-5",
					"maxclass" : "newobj",
					"numinlets" : 2,
					"numoutlets" : 1,
					"outlettype" : [ "bang" ],
					"patching_rect" : [ 1045.0, 54.0, 57.0, 22.0 ],
					"style" : "",
					"text" : "del 3000"
				}

			}
, 			{
				"box" : 				{
					"fontname" : "Arial",
					"fontsize" : 12.0,
					"id" : "obj-8",
					"maxclass" : "newobj",
					"numinlets" : 1,
					"numoutlets" : 1,
					"outlettype" : [ "bang" ],
					"patching_rect" : [ 1045.0, 24.0, 60.0, 22.0 ],
					"style" : "",
					"text" : "loadbang"
				}

			}
, 			{
				"box" : 				{
					"id" : "obj-41",
					"items" : [ "Display Audio", ",", "Scarlett 6i6 USB", ",", "Soundflower (2ch)", ",", "Soundflower (64ch)", ",", "Loopback Audio 2", ",", "Loopback Audio" ],
					"maxclass" : "umenu",
					"numinlets" : 1,
					"numoutlets" : 3,
					"outlettype" : [ "int", "", "" ],
					"parameter_enable" : 0,
					"patching_rect" : [ 345.5, 384.0, 143.5, 22.0 ],
					"style" : ""
				}

			}
, 			{
				"box" : 				{
					"fontname" : "Arial",
					"fontsize" : 13.0,
					"id" : "obj-38",
					"maxclass" : "newobj",
					"numinlets" : 2,
					"numoutlets" : 2,
					"outlettype" : [ "", "int" ],
					"patching_rect" : [ 345.5, 350.599548, 110.0, 23.0 ],
					"style" : "",
					"text" : "adstatus option 0"
				}

			}
, 			{
				"box" : 				{
					"id" : "obj-19",
					"maxclass" : "newobj",
					"numinlets" : 1,
					"numoutlets" : 1,
					"outlettype" : [ "" ],
					"patching_rect" : [ 37.0, 357.0, 89.0, 22.0 ],
					"style" : "",
					"text" : "filepath default"
				}

			}
, 			{
				"box" : 				{
					"id" : "obj-1",
					"maxclass" : "newobj",
					"numinlets" : 1,
					"numoutlets" : 2,
					"outlettype" : [ "", "bang" ],
					"patching_rect" : [ 37.0, 584.0, 91.0, 22.0 ],
					"saved_object_attributes" : 					{
						"shell" : "(default)",
						"stderr" : 1,
						"wd" : "~/mnc_culturehub_residency"
					}
,
					"style" : "",
					"text" : "shell @stderr 1"
				}

			}
, 			{
				"box" : 				{
					"id" : "obj-113",
					"maxclass" : "toggle",
					"numinlets" : 1,
					"numoutlets" : 1,
					"outlettype" : [ "int" ],
					"parameter_enable" : 0,
					"patching_rect" : [ 60.0, 27.0, 24.0, 24.0 ],
					"style" : ""
				}

			}
, 			{
				"box" : 				{
					"id" : "obj-111",
					"maxclass" : "message",
					"numinlets" : 2,
					"numoutlets" : 1,
					"outlettype" : [ "" ],
					"patching_rect" : [ 60.0, 54.0, 61.0, 22.0 ],
					"style" : "",
					"text" : "visible $1"
				}

			}
, 			{
				"box" : 				{
					"id" : "obj-107",
					"maxclass" : "toggle",
					"numinlets" : 1,
					"numoutlets" : 1,
					"outlettype" : [ "int" ],
					"parameter_enable" : 0,
					"patching_rect" : [ 21.0, 27.0, 24.0, 24.0 ],
					"style" : ""
				}

			}
, 			{
				"box" : 				{
					"id" : "obj-105",
					"maxclass" : "newobj",
					"numinlets" : 1,
					"numoutlets" : 0,
					"patching_rect" : [ 194.0, 124.0, 46.0, 22.0 ],
					"style" : "",
					"text" : "s draw"
				}

			}
, 			{
				"box" : 				{
					"id" : "obj-104",
					"linecount" : 2,
					"maxclass" : "newobj",
					"numinlets" : 1,
					"numoutlets" : 3,
					"outlettype" : [ "", "bang", "" ],
					"patching_rect" : [ 21.0, 81.0, 365.0, 35.0 ],
					"style" : "",
					"text" : "jit.world mnc @visible 0 @floating 1 @erase_color 0 0 0 @size 3840 720"
				}

			}
, 			{
				"box" : 				{
					"id" : "obj-71",
					"maxclass" : "button",
					"numinlets" : 1,
					"numoutlets" : 1,
					"outlettype" : [ "bang" ],
					"patching_rect" : [ 1046.5, 162.0, 24.0, 24.0 ],
					"style" : ""
				}

			}
, 			{
				"box" : 				{
					"id" : "obj-14",
					"maxclass" : "newobj",
					"numinlets" : 4,
					"numoutlets" : 4,
					"outlettype" : [ "", "", "", "" ],
					"patching_rect" : [ 282.5, 156.0, 375.0, 22.0 ],
					"style" : "",
					"text" : "route /transcript/interim /transcript/final /transcript/interim/word-colors"
				}

			}
, 			{
				"box" : 				{
					"id" : "obj-7",
					"maxclass" : "newobj",
					"numinlets" : 1,
					"numoutlets" : 1,
					"outlettype" : [ "" ],
					"patching_rect" : [ 282.5, 128.0, 99.0, 22.0 ],
					"style" : "",
					"text" : "udpreceive 2781"
				}

			}
, 			{
				"box" : 				{
					"attr" : "line_length",
					"id" : "obj-63",
					"maxclass" : "attrui",
					"numinlets" : 1,
					"numoutlets" : 1,
					"outlettype" : [ "" ],
					"patching_rect" : [ 685.5, 83.0, 150.0, 22.0 ],
					"style" : ""
				}

			}
, 			{
				"box" : 				{
					"id" : "obj-65",
					"maxclass" : "message",
					"numinlets" : 2,
					"numoutlets" : 1,
					"outlettype" : [ "" ],
					"patching_rect" : [ 218.0, 54.0, 49.0, 22.0 ],
					"style" : "",
					"text" : "getsize"
				}

			}
 ],
		"lines" : [ 			{
				"patchline" : 				{
					"destination" : [ "obj-18", 0 ],
					"source" : [ "obj-1", 0 ]
				}

			}
, 			{
				"patchline" : 				{
					"destination" : [ "obj-71", 0 ],
					"source" : [ "obj-10", 0 ]
				}

			}
, 			{
				"patchline" : 				{
					"destination" : [ "obj-97", 0 ],
					"midpoints" : [ 887.5, 320.0, 827.5, 320.0 ],
					"source" : [ "obj-100", 1 ]
				}

			}
, 			{
				"patchline" : 				{
					"destination" : [ "obj-4", 0 ],
					"source" : [ "obj-101", 0 ]
				}

			}
, 			{
				"patchline" : 				{
					"destination" : [ "obj-105", 0 ],
					"source" : [ "obj-104", 1 ]
				}

			}
, 			{
				"patchline" : 				{
					"destination" : [ "obj-68", 0 ],
					"source" : [ "obj-104", 2 ]
				}

			}
, 			{
				"patchline" : 				{
					"destination" : [ "obj-92", 0 ],
					"source" : [ "obj-106", 0 ]
				}

			}
, 			{
				"patchline" : 				{
					"destination" : [ "obj-104", 0 ],
					"source" : [ "obj-107", 0 ]
				}

			}
, 			{
				"patchline" : 				{
					"destination" : [ "obj-4", 0 ],
					"source" : [ "obj-108", 0 ]
				}

			}
, 			{
				"patchline" : 				{
					"destination" : [ "obj-88", 0 ],
					"source" : [ "obj-109", 0 ]
				}

			}
, 			{
				"patchline" : 				{
					"destination" : [ "obj-19", 0 ],
					"source" : [ "obj-11", 0 ]
				}

			}
, 			{
				"patchline" : 				{
					"destination" : [ "obj-93", 0 ],
					"source" : [ "obj-110", 1 ]
				}

			}
, 			{
				"patchline" : 				{
					"destination" : [ "obj-104", 0 ],
					"source" : [ "obj-111", 0 ]
				}

			}
, 			{
				"patchline" : 				{
					"destination" : [ "obj-101", 0 ],
					"source" : [ "obj-112", 0 ]
				}

			}
, 			{
				"patchline" : 				{
					"destination" : [ "obj-111", 0 ],
					"source" : [ "obj-113", 0 ]
				}

			}
, 			{
				"patchline" : 				{
					"destination" : [ "obj-108", 0 ],
					"source" : [ "obj-115", 0 ]
				}

			}
, 			{
				"patchline" : 				{
					"destination" : [ "obj-4", 0 ],
					"order" : 0,
					"source" : [ "obj-116", 0 ]
				}

			}
, 			{
				"patchline" : 				{
					"destination" : [ "obj-52", 0 ],
					"order" : 1,
					"source" : [ "obj-116", 0 ]
				}

			}
, 			{
				"patchline" : 				{
					"destination" : [ "obj-116", 0 ],
					"source" : [ "obj-118", 0 ]
				}

			}
, 			{
				"patchline" : 				{
					"destination" : [ "obj-120", 0 ],
					"source" : [ "obj-118", 1 ]
				}

			}
, 			{
				"patchline" : 				{
					"destination" : [ "obj-104", 0 ],
					"source" : [ "obj-12", 0 ]
				}

			}
, 			{
				"patchline" : 				{
					"destination" : [ "obj-4", 0 ],
					"order" : 0,
					"source" : [ "obj-120", 0 ]
				}

			}
, 			{
				"patchline" : 				{
					"destination" : [ "obj-52", 0 ],
					"order" : 1,
					"source" : [ "obj-120", 0 ]
				}

			}
, 			{
				"patchline" : 				{
					"destination" : [ "obj-104", 0 ],
					"source" : [ "obj-123", 0 ]
				}

			}
, 			{
				"patchline" : 				{
					"destination" : [ "obj-118", 0 ],
					"source" : [ "obj-126", 1 ]
				}

			}
, 			{
				"patchline" : 				{
					"destination" : [ "obj-123", 0 ],
					"source" : [ "obj-126", 0 ]
				}

			}
, 			{
				"patchline" : 				{
					"destination" : [ "obj-163", 1 ],
					"source" : [ "obj-128", 0 ]
				}

			}
, 			{
				"patchline" : 				{
					"destination" : [ "obj-82", 0 ],
					"source" : [ "obj-129", 0 ]
				}

			}
, 			{
				"patchline" : 				{
					"destination" : [ "obj-3", 0 ],
					"midpoints" : [ 70.5, 490.799774, 46.5, 490.799774 ],
					"source" : [ "obj-13", 1 ]
				}

			}
, 			{
				"patchline" : 				{
					"destination" : [ "obj-128", 0 ],
					"source" : [ "obj-130", 0 ]
				}

			}
, 			{
				"patchline" : 				{
					"destination" : [ "obj-129", 1 ],
					"source" : [ "obj-130", 1 ]
				}

			}
, 			{
				"patchline" : 				{
					"destination" : [ "obj-163", 0 ],
					"source" : [ "obj-130", 2 ]
				}

			}
, 			{
				"patchline" : 				{
					"destination" : [ "obj-46", 0 ],
					"order" : 1,
					"source" : [ "obj-131", 0 ]
				}

			}
, 			{
				"patchline" : 				{
					"destination" : [ "obj-76", 0 ],
					"order" : 0,
					"source" : [ "obj-131", 0 ]
				}

			}
, 			{
				"patchline" : 				{
					"destination" : [ "obj-128", 0 ],
					"source" : [ "obj-138", 0 ]
				}

			}
, 			{
				"patchline" : 				{
					"destination" : [ "obj-141", 1 ],
					"source" : [ "obj-138", 1 ]
				}

			}
, 			{
				"patchline" : 				{
					"destination" : [ "obj-163", 0 ],
					"source" : [ "obj-138", 2 ]
				}

			}
, 			{
				"patchline" : 				{
					"destination" : [ "obj-126", 0 ],
					"source" : [ "obj-14", 2 ]
				}

			}
, 			{
				"patchline" : 				{
					"destination" : [ "obj-157", 0 ],
					"order" : 1,
					"source" : [ "obj-14", 1 ]
				}

			}
, 			{
				"patchline" : 				{
					"destination" : [ "obj-157", 0 ],
					"order" : 1,
					"source" : [ "obj-14", 0 ]
				}

			}
, 			{
				"patchline" : 				{
					"destination" : [ "obj-166", 0 ],
					"order" : 0,
					"source" : [ "obj-14", 1 ]
				}

			}
, 			{
				"patchline" : 				{
					"destination" : [ "obj-167", 0 ],
					"order" : 0,
					"source" : [ "obj-14", 0 ]
				}

			}
, 			{
				"patchline" : 				{
					"destination" : [ "obj-28", 0 ],
					"source" : [ "obj-14", 3 ]
				}

			}
, 			{
				"patchline" : 				{
					"destination" : [ "obj-128", 1 ],
					"order" : 0,
					"source" : [ "obj-141", 0 ]
				}

			}
, 			{
				"patchline" : 				{
					"destination" : [ "obj-82", 0 ],
					"order" : 1,
					"source" : [ "obj-141", 0 ]
				}

			}
, 			{
				"patchline" : 				{
					"destination" : [ "obj-1", 0 ],
					"source" : [ "obj-15", 0 ]
				}

			}
, 			{
				"patchline" : 				{
					"destination" : [ "obj-64", 0 ],
					"source" : [ "obj-157", 0 ]
				}

			}
, 			{
				"patchline" : 				{
					"destination" : [ "obj-77", 0 ],
					"source" : [ "obj-16", 0 ]
				}

			}
, 			{
				"patchline" : 				{
					"destination" : [ "obj-128", 1 ],
					"source" : [ "obj-160", 0 ]
				}

			}
, 			{
				"patchline" : 				{
					"destination" : [ "obj-4", 0 ],
					"order" : 0,
					"source" : [ "obj-160", 1 ]
				}

			}
, 			{
				"patchline" : 				{
					"destination" : [ "obj-52", 0 ],
					"order" : 1,
					"source" : [ "obj-160", 1 ]
				}

			}
, 			{
				"patchline" : 				{
					"destination" : [ "obj-160", 0 ],
					"source" : [ "obj-162", 0 ]
				}

			}
, 			{
				"patchline" : 				{
					"destination" : [ "obj-129", 0 ],
					"source" : [ "obj-163", 0 ]
				}

			}
, 			{
				"patchline" : 				{
					"destination" : [ "obj-141", 0 ],
					"source" : [ "obj-163", 1 ]
				}

			}
, 			{
				"patchline" : 				{
					"destination" : [ "obj-138", 0 ],
					"source" : [ "obj-166", 0 ]
				}

			}
, 			{
				"patchline" : 				{
					"destination" : [ "obj-130", 0 ],
					"source" : [ "obj-167", 0 ]
				}

			}
, 			{
				"patchline" : 				{
					"destination" : [ "obj-34", 0 ],
					"source" : [ "obj-19", 0 ]
				}

			}
, 			{
				"patchline" : 				{
					"destination" : [ "obj-21", 0 ],
					"midpoints" : [ 162.5, 507.5, 196.5, 507.5 ],
					"source" : [ "obj-2", 1 ]
				}

			}
, 			{
				"patchline" : 				{
					"destination" : [ "obj-3", 0 ],
					"midpoints" : [ 151.5, 505.0, 46.5, 505.0 ],
					"source" : [ "obj-2", 0 ]
				}

			}
, 			{
				"patchline" : 				{
					"destination" : [ "obj-1", 0 ],
					"midpoints" : [ 196.5, 575.5, 46.5, 575.5 ],
					"order" : 1,
					"source" : [ "obj-21", 0 ]
				}

			}
, 			{
				"patchline" : 				{
					"destination" : [ "obj-9", 0 ],
					"order" : 0,
					"source" : [ "obj-21", 0 ]
				}

			}
, 			{
				"patchline" : 				{
					"destination" : [ "obj-41", 0 ],
					"source" : [ "obj-22", 0 ]
				}

			}
, 			{
				"patchline" : 				{
					"destination" : [ "obj-27", 0 ],
					"source" : [ "obj-23", 0 ]
				}

			}
, 			{
				"patchline" : 				{
					"destination" : [ "obj-13", 1 ],
					"midpoints" : [ 116.5, 479.599548, 93.5, 479.599548, 93.5, 442.599548, 70.5, 442.599548 ],
					"source" : [ "obj-24", 0 ]
				}

			}
, 			{
				"patchline" : 				{
					"destination" : [ "obj-2", 0 ],
					"source" : [ "obj-24", 1 ]
				}

			}
, 			{
				"patchline" : 				{
					"destination" : [ "obj-24", 0 ],
					"source" : [ "obj-25", 1 ]
				}

			}
, 			{
				"patchline" : 				{
					"destination" : [ "obj-24", 1 ],
					"source" : [ "obj-25", 0 ]
				}

			}
, 			{
				"patchline" : 				{
					"destination" : [ "obj-52", 0 ],
					"source" : [ "obj-26", 0 ]
				}

			}
, 			{
				"patchline" : 				{
					"destination" : [ "obj-23", 0 ],
					"source" : [ "obj-28", 0 ]
				}

			}
, 			{
				"patchline" : 				{
					"destination" : [ "obj-9", 0 ],
					"source" : [ "obj-28", 1 ]
				}

			}
, 			{
				"patchline" : 				{
					"destination" : [ "obj-21", 0 ],
					"source" : [ "obj-29", 0 ]
				}

			}
, 			{
				"patchline" : 				{
					"destination" : [ "obj-15", 0 ],
					"source" : [ "obj-3", 0 ]
				}

			}
, 			{
				"patchline" : 				{
					"destination" : [ "obj-50", 0 ],
					"source" : [ "obj-30", 0 ]
				}

			}
, 			{
				"patchline" : 				{
					"destination" : [ "obj-26", 0 ],
					"source" : [ "obj-32", 0 ]
				}

			}
, 			{
				"patchline" : 				{
					"destination" : [ "obj-1", 0 ],
					"midpoints" : [ 109.0, 575.5, 46.5, 575.5 ],
					"source" : [ "obj-33", 0 ]
				}

			}
, 			{
				"patchline" : 				{
					"destination" : [ "obj-39", 0 ],
					"source" : [ "obj-34", 0 ]
				}

			}
, 			{
				"patchline" : 				{
					"destination" : [ "obj-45", 0 ],
					"source" : [ "obj-37", 0 ]
				}

			}
, 			{
				"patchline" : 				{
					"destination" : [ "obj-41", 0 ],
					"source" : [ "obj-38", 0 ]
				}

			}
, 			{
				"patchline" : 				{
					"destination" : [ "obj-13", 0 ],
					"source" : [ "obj-39", 0 ]
				}

			}
, 			{
				"patchline" : 				{
					"destination" : [ "obj-33", 0 ],
					"midpoints" : [ 57.5, 496.5, 109.0, 496.5 ],
					"source" : [ "obj-39", 1 ]
				}

			}
, 			{
				"patchline" : 				{
					"destination" : [ "obj-25", 0 ],
					"source" : [ "obj-41", 1 ]
				}

			}
, 			{
				"patchline" : 				{
					"destination" : [ "obj-38", 0 ],
					"midpoints" : [ 355.0, 416.0, 336.0, 416.0, 336.0, 339.599548, 355.0, 339.599548 ],
					"source" : [ "obj-41", 0 ]
				}

			}
, 			{
				"patchline" : 				{
					"destination" : [ "obj-41", 0 ],
					"midpoints" : [ 472.5, 377.799774, 355.0, 377.799774 ],
					"source" : [ "obj-43", 0 ]
				}

			}
, 			{
				"patchline" : 				{
					"destination" : [ "obj-100", 0 ],
					"source" : [ "obj-45", 0 ]
				}

			}
, 			{
				"patchline" : 				{
					"destination" : [ "obj-49", 0 ],
					"source" : [ "obj-46", 0 ]
				}

			}
, 			{
				"patchline" : 				{
					"destination" : [ "obj-4", 0 ],
					"source" : [ "obj-47", 0 ]
				}

			}
, 			{
				"patchline" : 				{
					"destination" : [ "obj-47", 0 ],
					"source" : [ "obj-48", 0 ]
				}

			}
, 			{
				"patchline" : 				{
					"destination" : [ "obj-57", 0 ],
					"source" : [ "obj-49", 0 ]
				}

			}
, 			{
				"patchline" : 				{
					"destination" : [ "obj-6", 0 ],
					"source" : [ "obj-5", 0 ]
				}

			}
, 			{
				"patchline" : 				{
					"destination" : [ "obj-48", 1 ],
					"source" : [ "obj-50", 0 ]
				}

			}
, 			{
				"patchline" : 				{
					"destination" : [ "obj-131", 0 ],
					"source" : [ "obj-54", 0 ]
				}

			}
, 			{
				"patchline" : 				{
					"destination" : [ "obj-83", 0 ],
					"source" : [ "obj-57", 0 ]
				}

			}
, 			{
				"patchline" : 				{
					"destination" : [ "obj-60", 1 ],
					"source" : [ "obj-59", 0 ]
				}

			}
, 			{
				"patchline" : 				{
					"destination" : [ "obj-61", 0 ],
					"source" : [ "obj-60", 0 ]
				}

			}
, 			{
				"patchline" : 				{
					"destination" : [ "obj-52", 0 ],
					"source" : [ "obj-61", 0 ]
				}

			}
, 			{
				"patchline" : 				{
					"destination" : [ "obj-60", 0 ],
					"source" : [ "obj-62", 0 ]
				}

			}
, 			{
				"patchline" : 				{
					"destination" : [ "obj-52", 0 ],
					"source" : [ "obj-63", 0 ]
				}

			}
, 			{
				"patchline" : 				{
					"destination" : [ "obj-16", 0 ],
					"source" : [ "obj-64", 0 ]
				}

			}
, 			{
				"patchline" : 				{
					"destination" : [ "obj-67", 1 ],
					"source" : [ "obj-64", 1 ]
				}

			}
, 			{
				"patchline" : 				{
					"destination" : [ "obj-104", 0 ],
					"source" : [ "obj-65", 0 ]
				}

			}
, 			{
				"patchline" : 				{
					"destination" : [ "obj-59", 0 ],
					"source" : [ "obj-66", 0 ]
				}

			}
, 			{
				"patchline" : 				{
					"destination" : [ "obj-115", 0 ],
					"source" : [ "obj-67", 0 ]
				}

			}
, 			{
				"patchline" : 				{
					"destination" : [ "obj-69", 0 ],
					"source" : [ "obj-68", 0 ]
				}

			}
, 			{
				"patchline" : 				{
					"destination" : [ "obj-72", 0 ],
					"source" : [ "obj-69", 0 ]
				}

			}
, 			{
				"patchline" : 				{
					"destination" : [ "obj-14", 0 ],
					"source" : [ "obj-7", 0 ]
				}

			}
, 			{
				"patchline" : 				{
					"destination" : [ "obj-62", 0 ],
					"source" : [ "obj-70", 0 ]
				}

			}
, 			{
				"patchline" : 				{
					"destination" : [ "obj-150", 0 ],
					"source" : [ "obj-71", 0 ]
				}

			}
, 			{
				"patchline" : 				{
					"destination" : [ "obj-52", 0 ],
					"source" : [ "obj-72", 0 ]
				}

			}
, 			{
				"patchline" : 				{
					"destination" : [ "obj-4", 0 ],
					"order" : 0,
					"source" : [ "obj-75", 0 ]
				}

			}
, 			{
				"patchline" : 				{
					"destination" : [ "obj-52", 0 ],
					"order" : 1,
					"source" : [ "obj-75", 0 ]
				}

			}
, 			{
				"patchline" : 				{
					"destination" : [ "obj-67", 0 ],
					"source" : [ "obj-77", 0 ]
				}

			}
, 			{
				"patchline" : 				{
					"destination" : [ "obj-160", 0 ],
					"order" : 0,
					"source" : [ "obj-8", 0 ]
				}

			}
, 			{
				"patchline" : 				{
					"destination" : [ "obj-30", 0 ],
					"order" : 2,
					"source" : [ "obj-8", 0 ]
				}

			}
, 			{
				"patchline" : 				{
					"destination" : [ "obj-37", 0 ],
					"order" : 4,
					"source" : [ "obj-8", 0 ]
				}

			}
, 			{
				"patchline" : 				{
					"destination" : [ "obj-5", 0 ],
					"order" : 1,
					"source" : [ "obj-8", 0 ]
				}

			}
, 			{
				"patchline" : 				{
					"destination" : [ "obj-65", 0 ],
					"order" : 7,
					"source" : [ "obj-8", 0 ]
				}

			}
, 			{
				"patchline" : 				{
					"destination" : [ "obj-66", 0 ],
					"order" : 5,
					"source" : [ "obj-8", 0 ]
				}

			}
, 			{
				"patchline" : 				{
					"destination" : [ "obj-70", 0 ],
					"order" : 6,
					"source" : [ "obj-8", 0 ]
				}

			}
, 			{
				"patchline" : 				{
					"destination" : [ "obj-75", 0 ],
					"order" : 3,
					"source" : [ "obj-8", 0 ]
				}

			}
, 			{
				"patchline" : 				{
					"destination" : [ "obj-84", 0 ],
					"source" : [ "obj-82", 0 ]
				}

			}
, 			{
				"patchline" : 				{
					"destination" : [ "obj-106", 1 ],
					"source" : [ "obj-83", 0 ]
				}

			}
, 			{
				"patchline" : 				{
					"destination" : [ "obj-52", 0 ],
					"source" : [ "obj-84", 0 ]
				}

			}
, 			{
				"patchline" : 				{
					"destination" : [ "obj-90", 0 ],
					"source" : [ "obj-86", 0 ]
				}

			}
, 			{
				"patchline" : 				{
					"destination" : [ "obj-106", 0 ],
					"source" : [ "obj-88", 0 ]
				}

			}
, 			{
				"patchline" : 				{
					"destination" : [ "obj-110", 0 ],
					"source" : [ "obj-88", 1 ]
				}

			}
, 			{
				"patchline" : 				{
					"destination" : [ "obj-27", 0 ],
					"source" : [ "obj-9", 0 ]
				}

			}
, 			{
				"patchline" : 				{
					"destination" : [ "obj-12", 0 ],
					"source" : [ "obj-90", 0 ]
				}

			}
, 			{
				"patchline" : 				{
					"destination" : [ "obj-4", 0 ],
					"source" : [ "obj-92", 0 ]
				}

			}
, 			{
				"patchline" : 				{
					"destination" : [ "obj-92", 0 ],
					"source" : [ "obj-93", 0 ]
				}

			}
, 			{
				"patchline" : 				{
					"destination" : [ "obj-99", 0 ],
					"source" : [ "obj-97", 0 ]
				}

			}
, 			{
				"patchline" : 				{
					"destination" : [ "obj-4", 0 ],
					"order" : 0,
					"source" : [ "obj-99", 0 ]
				}

			}
, 			{
				"patchline" : 				{
					"destination" : [ "obj-52", 0 ],
					"order" : 1,
					"source" : [ "obj-99", 0 ]
				}

			}
 ],
		"dependency_cache" : [ 			{
				"name" : "shell.mxo",
				"type" : "iLaX"
			}
 ],
		"autosave" : 0
	}

}
